<?xml version="1.0" encoding="utf-8"?>
<!-- Generator: Adobe Illustrator 21.0.0, SVG Export Plug-In . SVG Version: 6.00 Build 0)  -->
<svg version="1.1" id="Layer_1" xmlns="http://www.w3.org/2000/svg" xmlns:xlink="http://www.w3.org/1999/xlink" x="0px" y="0px"
	 viewBox="0 0 50 50" style="enable-background:new 0 0 50 50;" xml:space="preserve">
<style type="text/css">
	.st0{fill:#EC1E27;}
	.st1{fill:#A01D22;}
	.st2{fill:url(#SVGID_1_);}
	.st3{fill:url(#SVGID_2_);}
	.st4{fill:url(#SVGID_3_);}
	.st5{fill:url(#SVGID_4_);}
</style>
<g>
	<circle class="st0" cx="25" cy="25" r="25"/>
	<g>
		<path class="st1" d="M49.3,30.7L36.7,14.5l-6.1-4.1l1.5,5.5L27,10.8l-13.8,4.6l2.6,7.7l-9.1,1.5l12,24.5c2,0.5,4.2,0.8,6.4,0.8
			C36.8,50,46.7,41.8,49.3,30.7z"/>
		<g>
			<linearGradient id="SVGID_1_" gradientUnits="userSpaceOnUse" x1="5.2901" y1="30.0169" x2="43.1071" y2="30.0169">
				<stop  offset="0" style="stop-color:#B46928"/>
				<stop  offset="8.333330e-02" style="stop-color:#CE8C31"/>
				<stop  offset="0.1792" style="stop-color:#CE8C31"/>
				<stop  offset="0.2729" style="stop-color:#DFB158"/>
				<stop  offset="0.3417" style="stop-color:#FDEF9D"/>
				<stop  offset="0.4062" style="stop-color:#FBF7C1"/>
				<stop  offset="0.4844" style="stop-color:#FDEF9D"/>
				<stop  offset="0.587" style="stop-color:#DFB158"/>
				<stop  offset="0.6715" style="stop-color:#CE8C31"/>
				<stop  offset="0.7717" style="stop-color:#C27D2A"/>
				<stop  offset="0.8337" style="stop-color:#CC832A"/>
				<stop  offset="0.8827" style="stop-color:#E4A33A"/>
				<stop  offset="0.9307" style="stop-color:#EFB449"/>
				<stop  offset="1" style="stop-color:#B66A29"/>
			</linearGradient>
			<path class="st2" d="M6.7,24.6c0.1,0,0.2-0.1,0.3-0.2c1.7-1.6,3.3-3.2,5-4.8c0.1-0.1,0.2-0.2,0.4,0c1.8,1.7,3.5,3.4,5.3,5.1
				c0,0,0,0,0,0.1c-0.8,0-1.6,0-2.4,0c-0.4,0-0.4,0.1-0.4,0.4c0.1,3,1.3,5.6,3.5,7.6c1.8,1.6,3.9,2.5,6.3,2.5c3.1,0,5.8-1.1,7.9-3.4
				c0.2-0.2,0.3-0.2,0.6-0.1c1.4,0.8,2.8,1.5,4.2,2.3c0.4,0.2,0.4,0.2,0.1,0.6c-1.9,2.4-4.2,4.1-7.1,5.1c-2.2,0.8-4.5,1.1-6.9,0.9
				c-5.6-0.6-9.6-3.6-12.3-8.5c-1.2-2.2-1.9-4.7-1.9-7.2c0-0.2-0.1-0.3-0.3-0.3C8.3,24.6,7.5,24.6,6.7,24.6
				C6.7,24.6,6.7,24.6,6.7,24.6z"/>
			<linearGradient id="SVGID_2_" gradientUnits="userSpaceOnUse" x1="5.2901" y1="13.8141" x2="43.1071" y2="13.8141">
				<stop  offset="0" style="stop-color:#B46928"/>
				<stop  offset="8.333330e-02" style="stop-color:#CE8C31"/>
				<stop  offset="0.1792" style="stop-color:#CE8C31"/>
				<stop  offset="0.2729" style="stop-color:#DFB158"/>
				<stop  offset="0.3417" style="stop-color:#FDEF9D"/>
				<stop  offset="0.4062" style="stop-color:#FBF7C1"/>
				<stop  offset="0.4844" style="stop-color:#FDEF9D"/>
				<stop  offset="0.587" style="stop-color:#DFB158"/>
				<stop  offset="0.6715" style="stop-color:#CE8C31"/>
				<stop  offset="0.7717" style="stop-color:#C27D2A"/>
				<stop  offset="0.8337" style="stop-color:#CC832A"/>
				<stop  offset="0.8827" style="stop-color:#E4A33A"/>
				<stop  offset="0.9307" style="stop-color:#EFB449"/>
				<stop  offset="1" style="stop-color:#B66A29"/>
			</linearGradient>
			<path class="st3" d="M32.7,18.3c-0.8-0.9-1.8-1.7-2.8-2.3c-3.1-1.7-6.3-1.5-9.4,0c-0.9,0.5-1.8,1.1-2.5,1.8
				c-0.2,0.2-0.3,0.2-0.5,0.1c-1.4-0.8-2.8-1.7-4.3-2.5C13,15.3,13,15.2,13.2,15c2.5-2.9,5.6-4.7,9.3-5.4c1.1-0.2,2.2-0.3,3.3-0.2
				c1.2,0.1,2.2,0.6,3.1,1.4c1.6,1.4,2.6,3.2,3.3,5.2c0.2,0.7,0.4,1.4,0.6,2.1C32.7,18.1,32.8,18.2,32.7,18.3z"/>
			<linearGradient id="SVGID_3_" gradientUnits="userSpaceOnUse" x1="5.2901" y1="20.1312" x2="43.1071" y2="20.1312">
				<stop  offset="0" style="stop-color:#B46928"/>
				<stop  offset="8.333330e-02" style="stop-color:#CE8C31"/>
				<stop  offset="0.1792" style="stop-color:#CE8C31"/>
				<stop  offset="0.2729" style="stop-color:#DFB158"/>
				<stop  offset="0.3417" style="stop-color:#FDEF9D"/>
				<stop  offset="0.4062" style="stop-color:#FBF7C1"/>
				<stop  offset="0.4844" style="stop-color:#FDEF9D"/>
				<stop  offset="0.587" style="stop-color:#DFB158"/>
				<stop  offset="0.6715" style="stop-color:#CE8C31"/>
				<stop  offset="0.7717" style="stop-color:#C27D2A"/>
				<stop  offset="0.8337" style="stop-color:#CC832A"/>
				<stop  offset="0.8827" style="stop-color:#E4A33A"/>
				<stop  offset="0.9307" style="stop-color:#EFB449"/>
				<stop  offset="1" style="stop-color:#B66A29"/>
			</linearGradient>
			<path class="st4" d="M32.5,24.6c0.9,0,1.8,0,2.6,0c0.2,0,0.2,0,0.2-0.2c0-3.1-0.5-6.1-1.7-9c-0.7-1.8-1.7-3.5-3-5
				c0.2-0.1,0.3,0,0.5,0.1c4.2,1.8,7.1,5,8.7,9.3c0.6,1.5,0.9,3,0.9,4.6c0,0.3,0.1,0.3,0.3,0.3c0.8,0,1.6,0,2.3,0
				c-0.4,0.5-0.9,1.1-1.5,1.6c-1.2,1.2-2.4,2.3-3.7,3.5c-0.1,0.1-0.2,0.2-0.4,0C36.1,28.1,34.3,26.4,32.5,24.6z"/>
			<linearGradient id="SVGID_4_" gradientUnits="userSpaceOnUse" x1="5.2901" y1="24.3795" x2="43.1071" y2="24.3795">
				<stop  offset="0" style="stop-color:#B46928"/>
				<stop  offset="8.333330e-02" style="stop-color:#CE8C31"/>
				<stop  offset="0.1792" style="stop-color:#CE8C31"/>
				<stop  offset="0.2729" style="stop-color:#DFB158"/>
				<stop  offset="0.3417" style="stop-color:#FDEF9D"/>
				<stop  offset="0.4062" style="stop-color:#FBF7C1"/>
				<stop  offset="0.4844" style="stop-color:#FDEF9D"/>
				<stop  offset="0.587" style="stop-color:#DFB158"/>
				<stop  offset="0.6715" style="stop-color:#CE8C31"/>
				<stop  offset="0.7717" style="stop-color:#C27D2A"/>
				<stop  offset="0.8337" style="stop-color:#CC832A"/>
				<stop  offset="0.8827" style="stop-color:#E4A33A"/>
				<stop  offset="0.9307" style="stop-color:#EFB449"/>
				<stop  offset="1" style="stop-color:#B66A29"/>
			</linearGradient>
			<path class="st5" d="M30.8,22.1c-0.3,0-0.5,0.2-0.5,0.5c0,0.2,0.1,0.4,0.3,0.5l-1.6,2.8l-0.5-4c0.3,0,0.5-0.2,0.5-0.5
				c0-0.3-0.2-0.5-0.5-0.5c-0.3,0-0.5,0.2-0.5,0.5c0,0.2,0.1,0.4,0.3,0.5l-1.5,4l-1-4.3c0.2-0.1,0.4-0.3,0.4-0.5
				c0-0.3-0.2-0.5-0.5-0.5c-0.3,0-0.5,0.2-0.5,0.5c0,0.2,0.2,0.4,0.4,0.5l-1,4.3l-1.5-4c0.2-0.1,0.3-0.3,0.3-0.5
				c0-0.3-0.2-0.5-0.5-0.5c-0.3,0-0.5,0.2-0.5,0.5c0,0.3,0.2,0.5,0.5,0.5l-0.4,4l-1.7-2.8c0.2-0.1,0.3-0.3,0.3-0.5
				c0-0.3-0.2-0.5-0.5-0.5s-0.5,0.2-0.5,0.5c0,0.3,0.2,0.5,0.5,0.5c0,0,0,0,0.1,0c0.1,0.4,1.2,4.7,1.2,4.7c0,0.1,1.5,0.3,4.1,0.3
				s4-0.2,4-0.3c0,0,1-4.3,1.1-4.7c0,0,0,0,0.1,0c0.3,0,0.5-0.2,0.5-0.5C31.3,22.3,31.1,22.1,30.8,22.1z"/>
		</g>
	</g>
</g>
</svg>
