<?xml version="1.0" encoding="utf-8"?>
<!-- Generator: Adobe Illustrator 21.0.0, SVG Export Plug-In . SVG Version: 6.00 Build 0)  -->
<svg version="1.1" id="Layer_1" xmlns="http://www.w3.org/2000/svg" xmlns:xlink="http://www.w3.org/1999/xlink" x="0px" y="0px"
	 viewBox="0 0 50 50" style="enable-background:new 0 0 50 50;" xml:space="preserve">
<style type="text/css">
	.st0{fill:#EC1E27;}
	.st1{fill:#A01D22;}
	.st2{fill:url(#SVGID_1_);}
	.st3{fill:url(#SVGID_2_);}
	.st4{fill:url(#SVGID_3_);}
</style>
<g>
	<circle class="st0" cx="25" cy="25" r="25"/>
	<g>
		<path class="st1" d="M49.2,31.2L38.5,17.1L29.7,23l-9.5-5.9l1,7.9l-2.7-9.5L11.5,30l1.4,2.2l-1.1,3.1l9.7,14.5
			c1.1,0.2,2.3,0.3,3.5,0.3C36.7,50,46.5,42,49.2,31.2z"/>
		<g>
			<linearGradient id="SVGID_1_" gradientUnits="userSpaceOnUse" x1="18.7709" y1="27.1653" x2="38.4685" y2="27.1653">
				<stop  offset="0" style="stop-color:#B46928"/>
				<stop  offset="8.333330e-02" style="stop-color:#CE8C31"/>
				<stop  offset="0.1792" style="stop-color:#CE8C31"/>
				<stop  offset="0.2729" style="stop-color:#DFB158"/>
				<stop  offset="0.3417" style="stop-color:#FDEF9D"/>
				<stop  offset="0.4062" style="stop-color:#FBF7C1"/>
				<stop  offset="0.4844" style="stop-color:#FDEF9D"/>
				<stop  offset="0.587" style="stop-color:#DFB158"/>
				<stop  offset="0.6715" style="stop-color:#CE8C31"/>
				<stop  offset="0.7717" style="stop-color:#C27D2A"/>
				<stop  offset="0.8337" style="stop-color:#CC832A"/>
				<stop  offset="0.8827" style="stop-color:#E4A33A"/>
				<stop  offset="0.9307" style="stop-color:#EFB449"/>
				<stop  offset="1" style="stop-color:#B66A29"/>
			</linearGradient>
			<path class="st2" d="M20.2,33.7c0,1.4-0.5,2.6-1.4,3.5h19.7V17.1v0H20.2V33.7z"/>
			<linearGradient id="SVGID_2_" gradientUnits="userSpaceOnUse" x1="11.5316" y1="33.6613" x2="18.6084" y2="33.6613">
				<stop  offset="0" style="stop-color:#B46928"/>
				<stop  offset="8.333330e-02" style="stop-color:#CE8C31"/>
				<stop  offset="0.1792" style="stop-color:#CE8C31"/>
				<stop  offset="0.2729" style="stop-color:#DFB158"/>
				<stop  offset="0.3417" style="stop-color:#FDEF9D"/>
				<stop  offset="0.4062" style="stop-color:#FBF7C1"/>
				<stop  offset="0.4844" style="stop-color:#FDEF9D"/>
				<stop  offset="0.587" style="stop-color:#DFB158"/>
				<stop  offset="0.6715" style="stop-color:#CE8C31"/>
				<stop  offset="0.7717" style="stop-color:#C27D2A"/>
				<stop  offset="0.8337" style="stop-color:#CC832A"/>
				<stop  offset="0.8827" style="stop-color:#E4A33A"/>
				<stop  offset="0.9307" style="stop-color:#EFB449"/>
				<stop  offset="1" style="stop-color:#B66A29"/>
			</linearGradient>
			<path class="st3" d="M15.1,30.1c-2,0-3.5,1.6-3.5,3.5s1.6,3.5,3.5,3.5c2,0,3.5-1.6,3.5-3.5C18.6,31.7,17,30.1,15.1,30.1z
				 M15.1,35.8c-1.2,0-2.1-1-2.1-2.1c0-0.4,0.4-0.8,0.8-0.8c0.4,0,0.8,0.4,0.8,0.8c0,0.3,0.2,0.5,0.5,0.5c0.3,0,0.5-0.2,0.5-0.5
				c0-0.4,0.4-0.8,0.8-0.8c0.4,0,0.8,0.4,0.8,0.8C17.2,34.8,16.2,35.8,15.1,35.8z"/>
			<linearGradient id="SVGID_3_" gradientUnits="userSpaceOnUse" x1="11.5315" y1="21.3804" x2="18.6084" y2="21.3804">
				<stop  offset="0" style="stop-color:#B46928"/>
				<stop  offset="8.333330e-02" style="stop-color:#CE8C31"/>
				<stop  offset="0.1792" style="stop-color:#CE8C31"/>
				<stop  offset="0.2729" style="stop-color:#DFB158"/>
				<stop  offset="0.3417" style="stop-color:#FDEF9D"/>
				<stop  offset="0.4062" style="stop-color:#FBF7C1"/>
				<stop  offset="0.4844" style="stop-color:#FDEF9D"/>
				<stop  offset="0.587" style="stop-color:#DFB158"/>
				<stop  offset="0.6715" style="stop-color:#CE8C31"/>
				<stop  offset="0.7717" style="stop-color:#C27D2A"/>
				<stop  offset="0.8337" style="stop-color:#CC832A"/>
				<stop  offset="0.8827" style="stop-color:#E4A33A"/>
				<stop  offset="0.9307" style="stop-color:#EFB449"/>
				<stop  offset="1" style="stop-color:#B66A29"/>
			</linearGradient>
			<path class="st4" d="M15.1,12.8c-2,0-3.5,1.6-3.5,3.5V30c0.9-0.9,2.2-1.4,3.5-1.4c1.4,0,2.6,0.5,3.5,1.4V16.3
				C18.6,14.4,17,12.8,15.1,12.8z"/>
		</g>
	</g>
</g>
</svg>
