<?xml version="1.0" encoding="utf-8"?>
<!-- Generator: Adobe Illustrator 21.0.0, SVG Export Plug-In . SVG Version: 6.00 Build 0)  -->
<svg version="1.1" id="Layer_1" xmlns="http://www.w3.org/2000/svg" xmlns:xlink="http://www.w3.org/1999/xlink" x="0px" y="0px"
	 viewBox="0 0 50 50" style="enable-background:new 0 0 50 50;" xml:space="preserve">
<style type="text/css">
	.st0{fill:#EC1E27;}
	.st1{fill:#A01D22;}
	.st2{fill:url(#SVGID_1_);}
	.st3{fill:url(#SVGID_2_);}
	.st4{fill:url(#SVGID_3_);}
	.st5{fill:url(#SVGID_4_);}
	.st6{fill:url(#SVGID_5_);}
	.st7{fill:url(#SVGID_6_);}
	.st8{fill:url(#SVGID_7_);}
	.st9{fill:url(#SVGID_8_);}
	.st10{fill:url(#SVGID_9_);}
	.st11{fill:url(#SVGID_10_);}
	.st12{fill:url(#SVGID_11_);}
	.st13{fill:url(#SVGID_12_);}
	.st14{fill:url(#SVGID_13_);}
	.st15{fill:url(#SVGID_14_);}
	.st16{fill:url(#SVGID_15_);}
	.st17{fill:url(#SVGID_16_);}
</style>
<g>
	<circle class="st0" cx="25" cy="25" r="25"/>
	<g>
		<path class="st1" d="M49.8,28.3L36,10.2L34.5,10l1,3L34,13.6l-1.4-2.4l-1.2,0.5l2,5.2l-2.2-3.7l-4,0.6l5.1,8.6l0.1,1.9l1.2,3.4
			l-1.4,1.9l0.8,2.4L35,36l-4-6.6l-2.9-1.8L24,22.1l-8.2,0.6l4,7.1l-1.2,1.9l0.3,2.7l-3.3,2.1l-2.2-0.6l-0.5,0.3l-4.9,2.4l6.6,9
			C17.6,49.2,21.2,50,25,50C37.7,50,48.2,40.5,49.8,28.3z"/>
		<g>
			<g>
				<linearGradient id="SVGID_1_" gradientUnits="userSpaceOnUse" x1="7.5469" y1="37.3851" x2="43.0504" y2="37.3851">
					<stop  offset="0" style="stop-color:#B46928"/>
					<stop  offset="8.333330e-02" style="stop-color:#CE8C31"/>
					<stop  offset="0.1792" style="stop-color:#CE8C31"/>
					<stop  offset="0.2729" style="stop-color:#DFB158"/>
					<stop  offset="0.3417" style="stop-color:#FDEF9D"/>
					<stop  offset="0.4062" style="stop-color:#FBF7C1"/>
					<stop  offset="0.4844" style="stop-color:#FDEF9D"/>
					<stop  offset="0.587" style="stop-color:#DFB158"/>
					<stop  offset="0.6715" style="stop-color:#CE8C31"/>
					<stop  offset="0.7717" style="stop-color:#C27D2A"/>
					<stop  offset="0.8337" style="stop-color:#CC832A"/>
					<stop  offset="0.8827" style="stop-color:#E4A33A"/>
					<stop  offset="0.9307" style="stop-color:#EFB449"/>
					<stop  offset="1" style="stop-color:#B66A29"/>
				</linearGradient>
				<path class="st2" d="M13.8,38.7v-0.8c0-1-0.7-1.8-1.6-1.8H9.5c-0.9,0-1.6,0.8-1.6,1.8v0.8H13.8z"/>
				<linearGradient id="SVGID_2_" gradientUnits="userSpaceOnUse" x1="7.5469" y1="37.3851" x2="43.0504" y2="37.3851">
					<stop  offset="0" style="stop-color:#B46928"/>
					<stop  offset="8.333330e-02" style="stop-color:#CE8C31"/>
					<stop  offset="0.1792" style="stop-color:#CE8C31"/>
					<stop  offset="0.2729" style="stop-color:#DFB158"/>
					<stop  offset="0.3417" style="stop-color:#FDEF9D"/>
					<stop  offset="0.4062" style="stop-color:#FBF7C1"/>
					<stop  offset="0.4844" style="stop-color:#FDEF9D"/>
					<stop  offset="0.587" style="stop-color:#DFB158"/>
					<stop  offset="0.6715" style="stop-color:#CE8C31"/>
					<stop  offset="0.7717" style="stop-color:#C27D2A"/>
					<stop  offset="0.8337" style="stop-color:#CC832A"/>
					<stop  offset="0.8827" style="stop-color:#E4A33A"/>
					<stop  offset="0.9307" style="stop-color:#EFB449"/>
					<stop  offset="1" style="stop-color:#B66A29"/>
				</linearGradient>
				<path class="st3" d="M40.9,38.7v-0.8c0-1-0.7-1.8-1.6-1.8h-2.7c-0.9,0-1.6,0.8-1.6,1.8v0.8H40.9z"/>
				<linearGradient id="SVGID_3_" gradientUnits="userSpaceOnUse" x1="7.5469" y1="36.4549" x2="43.0504" y2="36.4549">
					<stop  offset="0" style="stop-color:#B46928"/>
					<stop  offset="8.333330e-02" style="stop-color:#CE8C31"/>
					<stop  offset="0.1792" style="stop-color:#CE8C31"/>
					<stop  offset="0.2729" style="stop-color:#DFB158"/>
					<stop  offset="0.3417" style="stop-color:#FDEF9D"/>
					<stop  offset="0.4062" style="stop-color:#FBF7C1"/>
					<stop  offset="0.4844" style="stop-color:#FDEF9D"/>
					<stop  offset="0.587" style="stop-color:#DFB158"/>
					<stop  offset="0.6715" style="stop-color:#CE8C31"/>
					<stop  offset="0.7717" style="stop-color:#C27D2A"/>
					<stop  offset="0.8337" style="stop-color:#CC832A"/>
					<stop  offset="0.8827" style="stop-color:#E4A33A"/>
					<stop  offset="0.9307" style="stop-color:#EFB449"/>
					<stop  offset="1" style="stop-color:#B66A29"/>
				</linearGradient>
				<path class="st4" d="M31.7,34.4c-1.2,1.7-3.6,2.8-6.4,2.8c-2.8,0-5.2-1.2-6.5-2.9c-1.2,0.7-3.1,1.5-5.6,1.6c1,0.4,1.3,1.1,1.3,2
					v0.7h19.8v-0.7c0-0.9,0.5-1.6,1.3-1.8C34.2,35.9,32.6,35.4,31.7,34.4z"/>
			</g>
			<g>
				<linearGradient id="SVGID_4_" gradientUnits="userSpaceOnUse" x1="7.5469" y1="31.8556" x2="43.0504" y2="31.8556">
					<stop  offset="0" style="stop-color:#B46928"/>
					<stop  offset="8.333330e-02" style="stop-color:#CE8C31"/>
					<stop  offset="0.1792" style="stop-color:#CE8C31"/>
					<stop  offset="0.2729" style="stop-color:#DFB158"/>
					<stop  offset="0.3417" style="stop-color:#FDEF9D"/>
					<stop  offset="0.4062" style="stop-color:#FBF7C1"/>
					<stop  offset="0.4844" style="stop-color:#FDEF9D"/>
					<stop  offset="0.587" style="stop-color:#DFB158"/>
					<stop  offset="0.6715" style="stop-color:#CE8C31"/>
					<stop  offset="0.7717" style="stop-color:#C27D2A"/>
					<stop  offset="0.8337" style="stop-color:#CC832A"/>
					<stop  offset="0.8827" style="stop-color:#E4A33A"/>
					<stop  offset="0.9307" style="stop-color:#EFB449"/>
					<stop  offset="1" style="stop-color:#B66A29"/>
				</linearGradient>
				<path class="st5" d="M27.9,29.6c-1.2,0-2.2,1-2.2,2.2c0,1.2,1,2.2,2.2,2.2c1.2,0,2.2-1,2.2-2.2C30.1,30.6,29.1,29.6,27.9,29.6z
					 M27.9,32.9c-0.6,0-1.1-0.5-1.1-1.1c0-0.6,0.5-1.1,1.1-1.1c0.6,0,1.1,0.5,1.1,1.1C29,32.5,28.5,32.9,27.9,32.9z"/>
				<linearGradient id="SVGID_5_" gradientUnits="userSpaceOnUse" x1="7.5469" y1="36.0728" x2="43.0504" y2="36.0728">
					<stop  offset="0" style="stop-color:#B46928"/>
					<stop  offset="8.333330e-02" style="stop-color:#CE8C31"/>
					<stop  offset="0.1792" style="stop-color:#CE8C31"/>
					<stop  offset="0.2729" style="stop-color:#DFB158"/>
					<stop  offset="0.3417" style="stop-color:#FDEF9D"/>
					<stop  offset="0.4062" style="stop-color:#FBF7C1"/>
					<stop  offset="0.4844" style="stop-color:#FDEF9D"/>
					<stop  offset="0.587" style="stop-color:#DFB158"/>
					<stop  offset="0.6715" style="stop-color:#CE8C31"/>
					<stop  offset="0.7717" style="stop-color:#C27D2A"/>
					<stop  offset="0.8337" style="stop-color:#CC832A"/>
					<stop  offset="0.8827" style="stop-color:#E4A33A"/>
					<stop  offset="0.9307" style="stop-color:#EFB449"/>
					<stop  offset="1" style="stop-color:#B66A29"/>
				</linearGradient>
				<path class="st6" d="M28.6,36.1C28.6,36.1,28.6,36.1,28.6,36.1L28.6,36.1C28.6,36.1,28.6,36.1,28.6,36.1
					C28.6,36.1,28.6,36.1,28.6,36.1z"/>
				<g>
					<linearGradient id="SVGID_6_" gradientUnits="userSpaceOnUse" x1="7.5469" y1="35.3316" x2="43.0504" y2="35.3316">
						<stop  offset="0" style="stop-color:#B46928"/>
						<stop  offset="8.333330e-02" style="stop-color:#CE8C31"/>
						<stop  offset="0.1792" style="stop-color:#CE8C31"/>
						<stop  offset="0.2729" style="stop-color:#DFB158"/>
						<stop  offset="0.3417" style="stop-color:#FDEF9D"/>
						<stop  offset="0.4062" style="stop-color:#FBF7C1"/>
						<stop  offset="0.4844" style="stop-color:#FDEF9D"/>
						<stop  offset="0.587" style="stop-color:#DFB158"/>
						<stop  offset="0.6715" style="stop-color:#CE8C31"/>
						<stop  offset="0.7717" style="stop-color:#C27D2A"/>
						<stop  offset="0.8337" style="stop-color:#CC832A"/>
						<stop  offset="0.8827" style="stop-color:#E4A33A"/>
						<stop  offset="0.9307" style="stop-color:#EFB449"/>
						<stop  offset="1" style="stop-color:#B66A29"/>
					</linearGradient>
					<path class="st7" d="M27.4,34.3v1.2h-4.3c-0.3,0-0.5,0.2-0.5,0.5c0,0.3,0.2,0.5,0.5,0.5h4.8c0.3,0,0.5-0.2,0.5-0.5c0,0,0,0,0,0
						c0,0,0,0,0,0v-1.6c-0.1,0-0.3,0-0.5,0C27.7,34.3,27.6,34.3,27.4,34.3z"/>
					<linearGradient id="SVGID_7_" gradientUnits="userSpaceOnUse" x1="7.5469" y1="32.101" x2="43.0504" y2="32.101">
						<stop  offset="0" style="stop-color:#B46928"/>
						<stop  offset="8.333330e-02" style="stop-color:#CE8C31"/>
						<stop  offset="0.1792" style="stop-color:#CE8C31"/>
						<stop  offset="0.2729" style="stop-color:#DFB158"/>
						<stop  offset="0.3417" style="stop-color:#FDEF9D"/>
						<stop  offset="0.4062" style="stop-color:#FBF7C1"/>
						<stop  offset="0.4844" style="stop-color:#FDEF9D"/>
						<stop  offset="0.587" style="stop-color:#DFB158"/>
						<stop  offset="0.6715" style="stop-color:#CE8C31"/>
						<stop  offset="0.7717" style="stop-color:#C27D2A"/>
						<stop  offset="0.8337" style="stop-color:#CC832A"/>
						<stop  offset="0.8827" style="stop-color:#E4A33A"/>
						<stop  offset="0.9307" style="stop-color:#EFB449"/>
						<stop  offset="1" style="stop-color:#B66A29"/>
					</linearGradient>
					<path class="st8" d="M27.9,31.5c-0.3,0-0.5,0.2-0.5,0.5v0.6c0.1,0.1,0.3,0.1,0.5,0.1c0.2,0,0.3,0,0.5-0.1V32
						C28.4,31.7,28.2,31.5,27.9,31.5z"/>
				</g>
				<linearGradient id="SVGID_8_" gradientUnits="userSpaceOnUse" x1="7.5469" y1="31.6227" x2="43.0504" y2="31.6227">
					<stop  offset="0" style="stop-color:#B46928"/>
					<stop  offset="8.333330e-02" style="stop-color:#CE8C31"/>
					<stop  offset="0.1792" style="stop-color:#CE8C31"/>
					<stop  offset="0.2729" style="stop-color:#DFB158"/>
					<stop  offset="0.3417" style="stop-color:#FDEF9D"/>
					<stop  offset="0.4062" style="stop-color:#FBF7C1"/>
					<stop  offset="0.4844" style="stop-color:#FDEF9D"/>
					<stop  offset="0.587" style="stop-color:#DFB158"/>
					<stop  offset="0.6715" style="stop-color:#CE8C31"/>
					<stop  offset="0.7717" style="stop-color:#C27D2A"/>
					<stop  offset="0.8337" style="stop-color:#CC832A"/>
					<stop  offset="0.8827" style="stop-color:#E4A33A"/>
					<stop  offset="0.9307" style="stop-color:#EFB449"/>
					<stop  offset="1" style="stop-color:#B66A29"/>
				</linearGradient>
				<path class="st9" d="M32,31.8c0-2.7-3-4.8-6.7-4.8s-6.7,2.2-6.7,4.8c0,1.9,1.6,3.6,3.9,4.4c0,0,0,0,0,0
					c-0.1-0.1-0.2-0.3-0.2-0.4c0-0.3,0.2-0.6,0.5-0.7c-1.7-0.6-2.9-1.9-2.9-3.3c0-2.1,2.4-3.8,5.4-3.8c3,0,5.4,1.7,5.4,3.8
					c0,1.1-0.7,2.1-1.8,2.8v1.3C30.7,35.1,32,33.6,32,31.8z"/>
			</g>
			<linearGradient id="SVGID_9_" gradientUnits="userSpaceOnUse" x1="7.5469" y1="22.0883" x2="43.0504" y2="22.0883">
				<stop  offset="0" style="stop-color:#B46928"/>
				<stop  offset="8.333330e-02" style="stop-color:#CE8C31"/>
				<stop  offset="0.1792" style="stop-color:#CE8C31"/>
				<stop  offset="0.2729" style="stop-color:#DFB158"/>
				<stop  offset="0.3417" style="stop-color:#FDEF9D"/>
				<stop  offset="0.4062" style="stop-color:#FBF7C1"/>
				<stop  offset="0.4844" style="stop-color:#FDEF9D"/>
				<stop  offset="0.587" style="stop-color:#DFB158"/>
				<stop  offset="0.6715" style="stop-color:#CE8C31"/>
				<stop  offset="0.7717" style="stop-color:#C27D2A"/>
				<stop  offset="0.8337" style="stop-color:#CC832A"/>
				<stop  offset="0.8827" style="stop-color:#E4A33A"/>
				<stop  offset="0.9307" style="stop-color:#EFB449"/>
				<stop  offset="1" style="stop-color:#B66A29"/>
			</linearGradient>
			<path class="st10" d="M24,22.1c0,0.6-0.5,1.1-1.1,1.1h-6.4c-0.6,0-1.1-0.5-1.1-1.1l0,0c0-0.6,0.5-1.1,1.1-1.1H23
				C23.5,21,24,21.5,24,22.1L24,22.1z"/>
			<linearGradient id="SVGID_10_" gradientUnits="userSpaceOnUse" x1="7.5469" y1="23.1919" x2="43.0504" y2="23.1919">
				<stop  offset="0" style="stop-color:#B46928"/>
				<stop  offset="8.333330e-02" style="stop-color:#CE8C31"/>
				<stop  offset="0.1792" style="stop-color:#CE8C31"/>
				<stop  offset="0.2729" style="stop-color:#DFB158"/>
				<stop  offset="0.3417" style="stop-color:#FDEF9D"/>
				<stop  offset="0.4062" style="stop-color:#FBF7C1"/>
				<stop  offset="0.4844" style="stop-color:#FDEF9D"/>
				<stop  offset="0.587" style="stop-color:#DFB158"/>
				<stop  offset="0.6715" style="stop-color:#CE8C31"/>
				<stop  offset="0.7717" style="stop-color:#C27D2A"/>
				<stop  offset="0.8337" style="stop-color:#CC832A"/>
				<stop  offset="0.8827" style="stop-color:#E4A33A"/>
				<stop  offset="0.9307" style="stop-color:#EFB449"/>
				<stop  offset="1" style="stop-color:#B66A29"/>
			</linearGradient>
			<path class="st11" d="M32.3,22.3v1.8h2.3v-1.8H32.3z M33.5,23.7c-0.2,0-0.4-0.2-0.4-0.4c0-0.2,0.2-0.4,0.4-0.4
				c0.2,0,0.4,0.2,0.4,0.4C33.9,23.5,33.7,23.7,33.5,23.7z"/>
			<linearGradient id="SVGID_11_" gradientUnits="userSpaceOnUse" x1="7.5469" y1="16.2142" x2="43.0504" y2="16.2142">
				<stop  offset="0" style="stop-color:#B46928"/>
				<stop  offset="8.333330e-02" style="stop-color:#CE8C31"/>
				<stop  offset="0.1792" style="stop-color:#CE8C31"/>
				<stop  offset="0.2729" style="stop-color:#DFB158"/>
				<stop  offset="0.3417" style="stop-color:#FDEF9D"/>
				<stop  offset="0.4062" style="stop-color:#FBF7C1"/>
				<stop  offset="0.4844" style="stop-color:#FDEF9D"/>
				<stop  offset="0.587" style="stop-color:#DFB158"/>
				<stop  offset="0.6715" style="stop-color:#CE8C31"/>
				<stop  offset="0.7717" style="stop-color:#C27D2A"/>
				<stop  offset="0.8337" style="stop-color:#CC832A"/>
				<stop  offset="0.8827" style="stop-color:#E4A33A"/>
				<stop  offset="0.9307" style="stop-color:#EFB449"/>
				<stop  offset="1" style="stop-color:#B66A29"/>
			</linearGradient>
			<path class="st12" d="M32.7,11.4c-0.1-0.4-0.4-0.6-0.8-0.5c-0.4,0.1-0.6,0.4-0.5,0.8c0.8,3.8,1.2,7.1,1.3,9.9H34
				C33.9,18.7,33.5,15.3,32.7,11.4z"/>
			<linearGradient id="SVGID_12_" gradientUnits="userSpaceOnUse" x1="7.5469" y1="11.7996" x2="43.0504" y2="11.7996">
				<stop  offset="0" style="stop-color:#B46928"/>
				<stop  offset="8.333330e-02" style="stop-color:#CE8C31"/>
				<stop  offset="0.1792" style="stop-color:#CE8C31"/>
				<stop  offset="0.2729" style="stop-color:#DFB158"/>
				<stop  offset="0.3417" style="stop-color:#FDEF9D"/>
				<stop  offset="0.4062" style="stop-color:#FBF7C1"/>
				<stop  offset="0.4844" style="stop-color:#FDEF9D"/>
				<stop  offset="0.587" style="stop-color:#DFB158"/>
				<stop  offset="0.6715" style="stop-color:#CE8C31"/>
				<stop  offset="0.7717" style="stop-color:#C27D2A"/>
				<stop  offset="0.8337" style="stop-color:#CC832A"/>
				<stop  offset="0.8827" style="stop-color:#E4A33A"/>
				<stop  offset="0.9307" style="stop-color:#EFB449"/>
				<stop  offset="1" style="stop-color:#B66A29"/>
			</linearGradient>
			<path class="st13" d="M35.3,9.5h-0.9v3.6h-0.8c0.1,0.3,0.1,0.7,0.2,1h1.5c0.4,0,0.7-0.3,0.7-0.7v-3.2C36,9.8,35.7,9.5,35.3,9.5z"
				/>
			<linearGradient id="SVGID_13_" gradientUnits="userSpaceOnUse" x1="7.5469" y1="13.5765" x2="43.0504" y2="13.5765">
				<stop  offset="0" style="stop-color:#B46928"/>
				<stop  offset="8.333330e-02" style="stop-color:#CE8C31"/>
				<stop  offset="0.1792" style="stop-color:#CE8C31"/>
				<stop  offset="0.2729" style="stop-color:#DFB158"/>
				<stop  offset="0.3417" style="stop-color:#FDEF9D"/>
				<stop  offset="0.4062" style="stop-color:#FBF7C1"/>
				<stop  offset="0.4844" style="stop-color:#FDEF9D"/>
				<stop  offset="0.587" style="stop-color:#DFB158"/>
				<stop  offset="0.6715" style="stop-color:#CE8C31"/>
				<stop  offset="0.7717" style="stop-color:#C27D2A"/>
				<stop  offset="0.8337" style="stop-color:#CC832A"/>
				<stop  offset="0.8827" style="stop-color:#E4A33A"/>
				<stop  offset="0.9307" style="stop-color:#EFB449"/>
				<stop  offset="1" style="stop-color:#B66A29"/>
			</linearGradient>
			<path class="st14" d="M27,13.1v0.3c0,0.4,0.3,0.7,0.7,0.7h3.6c-0.1-0.3-0.1-0.7-0.2-1H27z"/>
			<linearGradient id="SVGID_14_" gradientUnits="userSpaceOnUse" x1="7.5469" y1="28.3999" x2="43.0504" y2="28.3999">
				<stop  offset="0" style="stop-color:#B46928"/>
				<stop  offset="8.333330e-02" style="stop-color:#CE8C31"/>
				<stop  offset="0.1792" style="stop-color:#CE8C31"/>
				<stop  offset="0.2729" style="stop-color:#DFB158"/>
				<stop  offset="0.3417" style="stop-color:#FDEF9D"/>
				<stop  offset="0.4062" style="stop-color:#FBF7C1"/>
				<stop  offset="0.4844" style="stop-color:#FDEF9D"/>
				<stop  offset="0.587" style="stop-color:#DFB158"/>
				<stop  offset="0.6715" style="stop-color:#CE8C31"/>
				<stop  offset="0.7717" style="stop-color:#C27D2A"/>
				<stop  offset="0.8337" style="stop-color:#CC832A"/>
				<stop  offset="0.8827" style="stop-color:#E4A33A"/>
				<stop  offset="0.9307" style="stop-color:#EFB449"/>
				<stop  offset="1" style="stop-color:#B66A29"/>
			</linearGradient>
			<path class="st15" d="M34,24.8h-1.3c-0.1,1.5-0.2,2.8-0.3,3.9c0,0.2-0.1,0.7-0.1,0.9c0.5,0.6,0.8,1.3,0.6,2.4
				c0.5-1.1,0.7-2.1,0.8-3.1C33.8,27.8,34,26.4,34,24.8z"/>
			<linearGradient id="SVGID_15_" gradientUnits="userSpaceOnUse" x1="7.5469" y1="29.8142" x2="43.0504" y2="29.8142">
				<stop  offset="0" style="stop-color:#B46928"/>
				<stop  offset="8.333330e-02" style="stop-color:#CE8C31"/>
				<stop  offset="0.1792" style="stop-color:#CE8C31"/>
				<stop  offset="0.2729" style="stop-color:#DFB158"/>
				<stop  offset="0.3417" style="stop-color:#FDEF9D"/>
				<stop  offset="0.4062" style="stop-color:#FBF7C1"/>
				<stop  offset="0.4844" style="stop-color:#FDEF9D"/>
				<stop  offset="0.587" style="stop-color:#DFB158"/>
				<stop  offset="0.6715" style="stop-color:#CE8C31"/>
				<stop  offset="0.7717" style="stop-color:#C27D2A"/>
				<stop  offset="0.8337" style="stop-color:#CC832A"/>
				<stop  offset="0.8827" style="stop-color:#E4A33A"/>
				<stop  offset="0.9307" style="stop-color:#EFB449"/>
				<stop  offset="1" style="stop-color:#B66A29"/>
			</linearGradient>
			<path class="st16" d="M21.4,30.2c0.1,0.5,0.6,0.8,1.1,0.7c0.5-0.1,0.8-0.6,0.7-1.1L23,28.8c-0.6,0.2-1.2,0.6-1.7,1L21.4,30.2z"/>
			<g>
				<linearGradient id="SVGID_16_" gradientUnits="userSpaceOnUse" x1="7.5469" y1="25.8665" x2="43.0504" y2="25.8665">
					<stop  offset="0" style="stop-color:#B46928"/>
					<stop  offset="8.333330e-02" style="stop-color:#CE8C31"/>
					<stop  offset="0.1792" style="stop-color:#CE8C31"/>
					<stop  offset="0.2729" style="stop-color:#DFB158"/>
					<stop  offset="0.3417" style="stop-color:#FDEF9D"/>
					<stop  offset="0.4062" style="stop-color:#FBF7C1"/>
					<stop  offset="0.4844" style="stop-color:#FDEF9D"/>
					<stop  offset="0.587" style="stop-color:#DFB158"/>
					<stop  offset="0.6715" style="stop-color:#CE8C31"/>
					<stop  offset="0.7717" style="stop-color:#C27D2A"/>
					<stop  offset="0.8337" style="stop-color:#CC832A"/>
					<stop  offset="0.8827" style="stop-color:#E4A33A"/>
					<stop  offset="0.9307" style="stop-color:#EFB449"/>
					<stop  offset="1" style="stop-color:#B66A29"/>
				</linearGradient>
				<path class="st17" d="M21.8,24h-1.9l0.9,3.8c0.5-0.3,1.1-0.6,1.7-0.8L21.8,24z M21.3,26.4c-0.2,0-0.4-0.2-0.4-0.4
					c0-0.2,0.2-0.4,0.4-0.4c0.2,0,0.4,0.2,0.4,0.4C21.7,26.2,21.5,26.4,21.3,26.4z"/>
			</g>
		</g>
	</g>
</g>
</svg>
