<?xml version="1.0" encoding="utf-8"?>
<!-- Generator: Adobe Illustrator 21.0.0, SVG Export Plug-In . SVG Version: 6.00 Build 0)  -->
<svg version="1.1" id="Layer_1" xmlns="http://www.w3.org/2000/svg" xmlns:xlink="http://www.w3.org/1999/xlink" x="0px" y="0px"
	 viewBox="0 0 50 50" style="enable-background:new 0 0 50 50;" xml:space="preserve">
<style type="text/css">
	.st0{fill:#EC1E27;}
	.st1{fill:#A01D22;}
	.st2{fill:url(#SVGID_1_);}
	.st3{fill:url(#SVGID_2_);}
	.st4{fill:url(#SVGID_3_);}
	.st5{fill:url(#SVGID_4_);}
	.st6{fill:url(#SVGID_5_);}
	.st7{fill:url(#SVGID_6_);}
	.st8{fill:url(#SVGID_7_);}
	.st9{fill:url(#SVGID_8_);}
</style>
<g>
	<circle class="st0" cx="25" cy="25" r="25"/>
	<path class="st1" d="M50,24.9L39.7,11.1l-1.5-1L34.9,14l-2.1-2l-4,4.4l1.5,3l-0.7,0.8c-2.4-3-4.6-5.6-4.6-5.6l-6.2,0.2l-0.1,3.6
		l3.2,3.7l-6.6,1.4l4.2,6.3L14,26.4l-2.8,5.1l2.2,2.2l-4.1-1.2l-1.1,4.1l10.4,12.6c2,0.5,4.1,0.8,6.3,0.8c1.4,0,2.8-0.1,4.1-0.3
		c2.2-0.4,4.3-1,6.3-1.9c0,0,0,0,0.1,0c0.6-0.3,1.3-0.6,1.9-1c0,0,0.1,0,0.1-0.1c0.6-0.3,1.2-0.7,1.8-1.1c0,0,0,0,0,0
		c1.2-0.8,2.3-1.7,3.3-2.7c0,0,0,0,0,0c0.5-0.5,0.9-1,1.4-1.5c0-0.1,0.1-0.1,0.1-0.2c0.4-0.5,0.8-1,1.2-1.5c0-0.1,0.1-0.1,0.1-0.2
		c0.4-0.5,0.7-1.1,1.1-1.7c0-0.1,0.1-0.1,0.1-0.2c0.7-1.2,1.3-2.4,1.8-3.7c0-0.1,0.1-0.1,0.1-0.2c0.2-0.6,0.4-1.2,0.6-1.9
		c0-0.1,0.1-0.2,0.1-0.3c0.2-0.6,0.3-1.3,0.4-1.9c0-0.1,0-0.2,0.1-0.3c0.1-0.7,0.2-1.3,0.3-2c0-0.1,0-0.2,0-0.3
		C50,26.4,50,25.7,50,24.9C50,25,50,24.9,50,24.9z"/>
	<g>
		<linearGradient id="SVGID_1_" gradientUnits="userSpaceOnUse" x1="5.4157" y1="17.0293" x2="41.1132" y2="17.0293">
			<stop  offset="0" style="stop-color:#B46928"/>
			<stop  offset="8.333330e-02" style="stop-color:#CE8C31"/>
			<stop  offset="0.1792" style="stop-color:#CE8C31"/>
			<stop  offset="0.2729" style="stop-color:#DFB158"/>
			<stop  offset="0.3417" style="stop-color:#FDEF9D"/>
			<stop  offset="0.4062" style="stop-color:#FBF7C1"/>
			<stop  offset="0.4844" style="stop-color:#FDEF9D"/>
			<stop  offset="0.587" style="stop-color:#DFB158"/>
			<stop  offset="0.6715" style="stop-color:#CE8C31"/>
			<stop  offset="0.7717" style="stop-color:#C27D2A"/>
			<stop  offset="0.8337" style="stop-color:#CC832A"/>
			<stop  offset="0.8827" style="stop-color:#E4A33A"/>
			<stop  offset="0.9307" style="stop-color:#EFB449"/>
			<stop  offset="1" style="stop-color:#B66A29"/>
		</linearGradient>
		<path class="st2" d="M24.8,14.4h-5.5c-0.3,0-0.6,0.2-0.6,0.6v3.3c0,0.3,0.2,0.6,0.6,0.6h2.2v0.8h1.1v-0.8h2.2
			c0.3,0,0.6-0.2,0.6-0.6V15C25.3,14.7,25.1,14.4,24.8,14.4z M23.2,17.8c0,0.1-0.1,0.2-0.2,0.2H20c-0.1,0-0.2-0.1-0.2-0.2v-2.4
			c0-0.1,0.1-0.2,0.2-0.2h3c0.1,0,0.2,0.1,0.2,0.2V17.8z M24.5,17.9C24.5,17.9,24.5,17.9,24.5,17.9c-0.3,0.2-0.7-0.1-0.5-0.4
			c0,0,0,0,0,0C24.4,17.2,24.7,17.6,24.5,17.9z M24.5,16.8C24.5,16.9,24.5,16.9,24.5,16.8c-0.3,0.2-0.7-0.1-0.5-0.4c0,0,0,0,0,0
			C24.4,16.2,24.7,16.5,24.5,16.8z M24.5,15.8C24.5,15.8,24.5,15.8,24.5,15.8c-0.3,0.2-0.7-0.1-0.5-0.4c0,0,0,0,0,0
			C24.4,15.1,24.7,15.5,24.5,15.8z"/>
		<linearGradient id="SVGID_2_" gradientUnits="userSpaceOnUse" x1="5.4157" y1="22.1721" x2="41.1132" y2="22.1721">
			<stop  offset="0" style="stop-color:#B46928"/>
			<stop  offset="8.333330e-02" style="stop-color:#CE8C31"/>
			<stop  offset="0.1792" style="stop-color:#CE8C31"/>
			<stop  offset="0.2729" style="stop-color:#DFB158"/>
			<stop  offset="0.3417" style="stop-color:#FDEF9D"/>
			<stop  offset="0.4062" style="stop-color:#FBF7C1"/>
			<stop  offset="0.4844" style="stop-color:#FDEF9D"/>
			<stop  offset="0.587" style="stop-color:#DFB158"/>
			<stop  offset="0.6715" style="stop-color:#CE8C31"/>
			<stop  offset="0.7717" style="stop-color:#C27D2A"/>
			<stop  offset="0.8337" style="stop-color:#CC832A"/>
			<stop  offset="0.8827" style="stop-color:#E4A33A"/>
			<stop  offset="0.9307" style="stop-color:#EFB449"/>
			<stop  offset="1" style="stop-color:#B66A29"/>
		</linearGradient>
		<path class="st3" d="M29.9,22.4c0-0.9-0.7-1.7-1.7-1.7H17.1c-0.9,0-1.7,0.8-1.7,1.7v1.3h14.5V22.4z"/>
		<linearGradient id="SVGID_3_" gradientUnits="userSpaceOnUse" x1="5.4157" y1="14.5372" x2="41.1132" y2="14.5372">
			<stop  offset="0" style="stop-color:#B46928"/>
			<stop  offset="8.333330e-02" style="stop-color:#CE8C31"/>
			<stop  offset="0.1792" style="stop-color:#CE8C31"/>
			<stop  offset="0.2729" style="stop-color:#DFB158"/>
			<stop  offset="0.3417" style="stop-color:#FDEF9D"/>
			<stop  offset="0.4062" style="stop-color:#FBF7C1"/>
			<stop  offset="0.4844" style="stop-color:#FDEF9D"/>
			<stop  offset="0.587" style="stop-color:#DFB158"/>
			<stop  offset="0.6715" style="stop-color:#CE8C31"/>
			<stop  offset="0.7717" style="stop-color:#C27D2A"/>
			<stop  offset="0.8337" style="stop-color:#CC832A"/>
			<stop  offset="0.8827" style="stop-color:#E4A33A"/>
			<stop  offset="0.9307" style="stop-color:#EFB449"/>
			<stop  offset="1" style="stop-color:#B66A29"/>
		</linearGradient>
		<path class="st4" d="M32.1,11.8c-0.4-0.2-0.9-0.1-1.2,0.3l-2.2,3.8c-0.2,0.4-0.1,0.9,0.3,1.2l0.5,0.3l3-5.3L32.1,11.8z"/>
		<linearGradient id="SVGID_4_" gradientUnits="userSpaceOnUse" x1="5.4157" y1="30.7718" x2="41.1132" y2="30.7718">
			<stop  offset="0" style="stop-color:#B46928"/>
			<stop  offset="8.333330e-02" style="stop-color:#CE8C31"/>
			<stop  offset="0.1792" style="stop-color:#CE8C31"/>
			<stop  offset="0.2729" style="stop-color:#DFB158"/>
			<stop  offset="0.3417" style="stop-color:#FDEF9D"/>
			<stop  offset="0.4062" style="stop-color:#FBF7C1"/>
			<stop  offset="0.4844" style="stop-color:#FDEF9D"/>
			<stop  offset="0.587" style="stop-color:#DFB158"/>
			<stop  offset="0.6715" style="stop-color:#CE8C31"/>
			<stop  offset="0.7717" style="stop-color:#C27D2A"/>
			<stop  offset="0.8337" style="stop-color:#CC832A"/>
			<stop  offset="0.8827" style="stop-color:#E4A33A"/>
			<stop  offset="0.9307" style="stop-color:#EFB449"/>
			<stop  offset="1" style="stop-color:#B66A29"/>
		</linearGradient>
		<path class="st5" d="M26.3,36.8H16c-1,0-1.3-0.6-1.3-1.3l0.6-9.4c0-0.7,0.7-1.3,1.4-1.3h12.8c0.7,0,1.2,0.5,1.3,1.1
			c0,0.1,0,0.2,0,0.3c0,0-3.2,9.3-3.2,9.4C27.3,36.4,27.1,36.8,26.3,36.8z"/>
		<linearGradient id="SVGID_5_" gradientUnits="userSpaceOnUse" x1="5.4157" y1="17.6139" x2="41.1132" y2="17.6139">
			<stop  offset="0" style="stop-color:#B46928"/>
			<stop  offset="8.333330e-02" style="stop-color:#CE8C31"/>
			<stop  offset="0.1792" style="stop-color:#CE8C31"/>
			<stop  offset="0.2729" style="stop-color:#DFB158"/>
			<stop  offset="0.3417" style="stop-color:#FDEF9D"/>
			<stop  offset="0.4062" style="stop-color:#FBF7C1"/>
			<stop  offset="0.4844" style="stop-color:#FDEF9D"/>
			<stop  offset="0.587" style="stop-color:#DFB158"/>
			<stop  offset="0.6715" style="stop-color:#CE8C31"/>
			<stop  offset="0.7717" style="stop-color:#C27D2A"/>
			<stop  offset="0.8337" style="stop-color:#CC832A"/>
			<stop  offset="0.8827" style="stop-color:#E4A33A"/>
			<stop  offset="0.9307" style="stop-color:#EFB449"/>
			<stop  offset="1" style="stop-color:#B66A29"/>
		</linearGradient>
		<path class="st6" d="M39.1,10.6l-0.8-0.5c-1.5-0.9-2.9-0.2-3.8,1.3l-5,8.7c0.7,0.1,1.5,0.6,1.5,1.9l0,1.8c0,0,1.1,0.4,1.2,1.7
			l7.4-13C40,11.8,39.7,11,39.1,10.6z"/>
		<linearGradient id="SVGID_6_" gradientUnits="userSpaceOnUse" x1="5.4157" y1="28.9332" x2="41.1132" y2="28.9332">
			<stop  offset="0" style="stop-color:#B46928"/>
			<stop  offset="8.333330e-02" style="stop-color:#CE8C31"/>
			<stop  offset="0.1792" style="stop-color:#CE8C31"/>
			<stop  offset="0.2729" style="stop-color:#DFB158"/>
			<stop  offset="0.3417" style="stop-color:#FDEF9D"/>
			<stop  offset="0.4062" style="stop-color:#FBF7C1"/>
			<stop  offset="0.4844" style="stop-color:#FDEF9D"/>
			<stop  offset="0.587" style="stop-color:#DFB158"/>
			<stop  offset="0.6715" style="stop-color:#CE8C31"/>
			<stop  offset="0.7717" style="stop-color:#C27D2A"/>
			<stop  offset="0.8337" style="stop-color:#CC832A"/>
			<stop  offset="0.8827" style="stop-color:#E4A33A"/>
			<stop  offset="0.9307" style="stop-color:#EFB449"/>
			<stop  offset="1" style="stop-color:#B66A29"/>
		</linearGradient>
		<path class="st7" d="M13.5,26.4c-0.8,0-1.3,0.5-1.5,1.2l-0.9,3.8h2.8l0.3-5H13.5z"/>
		<linearGradient id="SVGID_7_" gradientUnits="userSpaceOnUse" x1="5.4157" y1="34.6044" x2="41.1132" y2="34.6044">
			<stop  offset="0" style="stop-color:#B46928"/>
			<stop  offset="8.333330e-02" style="stop-color:#CE8C31"/>
			<stop  offset="0.1792" style="stop-color:#CE8C31"/>
			<stop  offset="0.2729" style="stop-color:#DFB158"/>
			<stop  offset="0.3417" style="stop-color:#FDEF9D"/>
			<stop  offset="0.4062" style="stop-color:#FBF7C1"/>
			<stop  offset="0.4844" style="stop-color:#FDEF9D"/>
			<stop  offset="0.587" style="stop-color:#DFB158"/>
			<stop  offset="0.6715" style="stop-color:#CE8C31"/>
			<stop  offset="0.7717" style="stop-color:#C27D2A"/>
			<stop  offset="0.8337" style="stop-color:#CC832A"/>
			<stop  offset="0.8827" style="stop-color:#E4A33A"/>
			<stop  offset="0.9307" style="stop-color:#EFB449"/>
			<stop  offset="1" style="stop-color:#B66A29"/>
		</linearGradient>
		<path class="st8" d="M13.7,36.1l0.2-3.6c0,0,0,0,0,0H9.7c-0.5,0-1.3,0.3-1.7,2.1L8,35.4c0,0.5,0.3,1.3,1.2,1.3h4.9
			C13.8,36.6,13.7,36.4,13.7,36.1z"/>
		<linearGradient id="SVGID_8_" gradientUnits="userSpaceOnUse" x1="5.4157" y1="34.0182" x2="41.1132" y2="34.0182">
			<stop  offset="0" style="stop-color:#B46928"/>
			<stop  offset="8.333330e-02" style="stop-color:#CE8C31"/>
			<stop  offset="0.1792" style="stop-color:#CE8C31"/>
			<stop  offset="0.2729" style="stop-color:#DFB158"/>
			<stop  offset="0.3417" style="stop-color:#FDEF9D"/>
			<stop  offset="0.4062" style="stop-color:#FBF7C1"/>
			<stop  offset="0.4844" style="stop-color:#FDEF9D"/>
			<stop  offset="0.587" style="stop-color:#DFB158"/>
			<stop  offset="0.6715" style="stop-color:#CE8C31"/>
			<stop  offset="0.7717" style="stop-color:#C27D2A"/>
			<stop  offset="0.8337" style="stop-color:#CC832A"/>
			<stop  offset="0.8827" style="stop-color:#E4A33A"/>
			<stop  offset="0.9307" style="stop-color:#EFB449"/>
			<stop  offset="1" style="stop-color:#B66A29"/>
		</linearGradient>
		<path class="st9" d="M30.3,31.3l-1.8,5.5h2c1-0.1,1.4-1.1,1.2-1.6L30.3,31.3z"/>
	</g>
</g>
</svg>
