<?xml version="1.0" encoding="utf-8"?>
<!-- Generator: Adobe Illustrator 21.0.0, SVG Export Plug-In . SVG Version: 6.00 Build 0)  -->
<svg version="1.1" id="Layer_1" xmlns="http://www.w3.org/2000/svg" xmlns:xlink="http://www.w3.org/1999/xlink" x="0px" y="0px"
	 viewBox="0 0 50 50" style="enable-background:new 0 0 50 50;" xml:space="preserve">
<style type="text/css">
	.st0{fill:#EC1E27;}
	.st1{fill:#A01D22;}
	.st2{fill:url(#SVGID_1_);}
	.st3{fill:url(#SVGID_2_);}
	.st4{fill:url(#SVGID_3_);}
	.st5{fill:url(#SVGID_4_);}
</style>
<g>
	<circle class="st0" cx="25" cy="25" r="25"/>
	<g>
		<path class="st1" d="M38.8,17.3l-12.6,0.5l-2.8-5.1l-12.2,2.1l1.2,2.3l-1.3,2.4l1.2,2.5l-1.2,11.8l1.2,1.7l-0.9,0.7
			c0,0,0.1,0.4,0.3,1.1l5.7,11.6c2.4,0.8,4.9,1.2,7.5,1.2c11.8,0,21.7-8.2,24.3-19.2L38.8,17.3z"/>
		<g>
			<linearGradient id="SVGID_1_" gradientUnits="userSpaceOnUse" x1="10.2675" y1="23.1982" x2="40.5175" y2="23.1982">
				<stop  offset="0" style="stop-color:#B46928"/>
				<stop  offset="8.333330e-02" style="stop-color:#CE8C31"/>
				<stop  offset="0.1792" style="stop-color:#CE8C31"/>
				<stop  offset="0.2729" style="stop-color:#DFB158"/>
				<stop  offset="0.3417" style="stop-color:#FDEF9D"/>
				<stop  offset="0.4062" style="stop-color:#FBF7C1"/>
				<stop  offset="0.4844" style="stop-color:#FDEF9D"/>
				<stop  offset="0.587" style="stop-color:#DFB158"/>
				<stop  offset="0.6715" style="stop-color:#CE8C31"/>
				<stop  offset="0.7717" style="stop-color:#C27D2A"/>
				<stop  offset="0.8337" style="stop-color:#CC832A"/>
				<stop  offset="0.8827" style="stop-color:#E4A33A"/>
				<stop  offset="0.9307" style="stop-color:#EFB449"/>
				<stop  offset="1" style="stop-color:#B66A29"/>
			</linearGradient>
			<path class="st2" d="M38.8,19.5v-2.3c0-0.6-0.4-1-1-1H23.3l-0.6-1.4h0.8v-2.2H11.3v2.2h1.4l0.6,1.4h-1.2c-0.6,0-1,0.4-1,1v2.3
				h3.7l0.6,1.3h-4.3v12.9H14v-7.8h22v7.8h2.9V20.9H25.4l-0.6-1.3H38.8z M13.8,14.9h7.8l0.6,1.4h-7.8L13.8,14.9z M21.5,24.4
				c-0.3,0.4-0.9,0.5-1.4,0.2c-0.4-0.3-0.5-0.9-0.2-1.4c0.3-0.4,0.9-0.5,1.4-0.2C21.8,23.4,21.9,24,21.5,24.4z M24.4,24.4
				c-0.3,0.4-0.9,0.5-1.4,0.2c-0.4-0.3-0.5-0.9-0.2-1.4c0.3-0.4,0.9-0.5,1.4-0.2C24.6,23.4,24.7,24,24.4,24.4z M28.5,23.2
				c0.3-0.4,0.9-0.5,1.4-0.2c0.4,0.3,0.5,0.9,0.2,1.4c-0.3,0.4-0.9,0.5-1.4,0.2C28.2,24.3,28.1,23.7,28.5,23.2z M27,23.1
				c0.4,0.3,0.5,0.9,0.2,1.4c-0.3,0.4-0.9,0.5-1.4,0.2c-0.4-0.3-0.5-0.9-0.2-1.4C26,22.8,26.6,22.7,27,23.1z M24.4,20.9h-7.8
				l-0.6-1.3h7.8L24.4,20.9z"/>
			<linearGradient id="SVGID_2_" gradientUnits="userSpaceOnUse" x1="10.2675" y1="36.1411" x2="40.5175" y2="36.1411">
				<stop  offset="0" style="stop-color:#B46928"/>
				<stop  offset="8.333330e-02" style="stop-color:#CE8C31"/>
				<stop  offset="0.1792" style="stop-color:#CE8C31"/>
				<stop  offset="0.2729" style="stop-color:#DFB158"/>
				<stop  offset="0.3417" style="stop-color:#FDEF9D"/>
				<stop  offset="0.4062" style="stop-color:#FBF7C1"/>
				<stop  offset="0.4844" style="stop-color:#FDEF9D"/>
				<stop  offset="0.587" style="stop-color:#DFB158"/>
				<stop  offset="0.6715" style="stop-color:#CE8C31"/>
				<stop  offset="0.7717" style="stop-color:#C27D2A"/>
				<stop  offset="0.8337" style="stop-color:#CC832A"/>
				<stop  offset="0.8827" style="stop-color:#E4A33A"/>
				<stop  offset="0.9307" style="stop-color:#EFB449"/>
				<stop  offset="1" style="stop-color:#B66A29"/>
			</linearGradient>
			<circle class="st3" cx="12.7" cy="36.1" r="1.2"/>
			<linearGradient id="SVGID_3_" gradientUnits="userSpaceOnUse" x1="10.2675" y1="36.1411" x2="40.5175" y2="36.1411">
				<stop  offset="0" style="stop-color:#B46928"/>
				<stop  offset="8.333330e-02" style="stop-color:#CE8C31"/>
				<stop  offset="0.1792" style="stop-color:#CE8C31"/>
				<stop  offset="0.2729" style="stop-color:#DFB158"/>
				<stop  offset="0.3417" style="stop-color:#FDEF9D"/>
				<stop  offset="0.4062" style="stop-color:#FBF7C1"/>
				<stop  offset="0.4844" style="stop-color:#FDEF9D"/>
				<stop  offset="0.587" style="stop-color:#DFB158"/>
				<stop  offset="0.6715" style="stop-color:#CE8C31"/>
				<stop  offset="0.7717" style="stop-color:#C27D2A"/>
				<stop  offset="0.8337" style="stop-color:#CC832A"/>
				<stop  offset="0.8827" style="stop-color:#E4A33A"/>
				<stop  offset="0.9307" style="stop-color:#EFB449"/>
				<stop  offset="1" style="stop-color:#B66A29"/>
			</linearGradient>
			<circle class="st4" cx="37.5" cy="36.1" r="1.2"/>
			<linearGradient id="SVGID_4_" gradientUnits="userSpaceOnUse" x1="10.2675" y1="31.0438" x2="40.5175" y2="31.0438">
				<stop  offset="0" style="stop-color:#B46928"/>
				<stop  offset="8.333330e-02" style="stop-color:#CE8C31"/>
				<stop  offset="0.1792" style="stop-color:#CE8C31"/>
				<stop  offset="0.2729" style="stop-color:#DFB158"/>
				<stop  offset="0.3417" style="stop-color:#FDEF9D"/>
				<stop  offset="0.4062" style="stop-color:#FBF7C1"/>
				<stop  offset="0.4844" style="stop-color:#FDEF9D"/>
				<stop  offset="0.587" style="stop-color:#DFB158"/>
				<stop  offset="0.6715" style="stop-color:#CE8C31"/>
				<stop  offset="0.7717" style="stop-color:#C27D2A"/>
				<stop  offset="0.8337" style="stop-color:#CC832A"/>
				<stop  offset="0.8827" style="stop-color:#E4A33A"/>
				<stop  offset="0.9307" style="stop-color:#EFB449"/>
				<stop  offset="1" style="stop-color:#B66A29"/>
			</linearGradient>
			<rect x="15.3" y="27.1" class="st5" width="19.5" height="7.8"/>
		</g>
	</g>
</g>
</svg>
