<?xml version="1.0" encoding="utf-8"?>
<!-- Generator: Adobe Illustrator 21.0.0, SVG Export Plug-In . SVG Version: 6.00 Build 0)  -->
<svg version="1.1" id="Layer_1" xmlns="http://www.w3.org/2000/svg" xmlns:xlink="http://www.w3.org/1999/xlink" x="0px" y="0px"
	 viewBox="0 0 50 50" style="enable-background:new 0 0 50 50;" xml:space="preserve">
<style type="text/css">
	.st0{fill:#EC1E27;}
	.st1{fill:#A01D22;}
	.st2{fill:url(#SVGID_1_);}
</style>
<g>
	<circle class="st0" cx="25" cy="25" r="25"/>
	<path class="st1" d="M49.3,30.9l-8.4-11.1l-2.8,0.7l0.8,1.9l-0.3,0.2l-4.3-6.2l-2.7,0.8l1.1,3.1l-0.9,2.7l-5.4-7.5L24,16.7l1.5,3.7
		l-0.4,4.4l-6.4-8.5L16,17.4l2,3.9l-0.4,6.6l-5.8-8.3L9.3,21l3.6,4.5l1.1,9.2l9.5,15.2c0.5,0,1,0.1,1.5,0.1
		C36.8,50,46.6,41.9,49.3,30.9z"/>
	<linearGradient id="SVGID_1_" gradientUnits="userSpaceOnUse" x1="9.7788" y1="25" x2="41.2947" y2="25">
		<stop  offset="0" style="stop-color:#B46928"/>
		<stop  offset="8.333330e-02" style="stop-color:#CE8C31"/>
		<stop  offset="0.1792" style="stop-color:#CE8C31"/>
		<stop  offset="0.2729" style="stop-color:#DFB158"/>
		<stop  offset="0.3417" style="stop-color:#FDEF9D"/>
		<stop  offset="0.4062" style="stop-color:#FBF7C1"/>
		<stop  offset="0.4844" style="stop-color:#FDEF9D"/>
		<stop  offset="0.587" style="stop-color:#DFB158"/>
		<stop  offset="0.6715" style="stop-color:#CE8C31"/>
		<stop  offset="0.7717" style="stop-color:#C27D2A"/>
		<stop  offset="0.8337" style="stop-color:#CC832A"/>
		<stop  offset="0.8827" style="stop-color:#E4A33A"/>
		<stop  offset="0.9307" style="stop-color:#EFB449"/>
		<stop  offset="1" style="stop-color:#B66A29"/>
	</linearGradient>
	<path class="st2" d="M39.5,18.7c-0.8,0-1.4,0.6-1.4,1.4c0,0.6,0.3,1.1,0.8,1.3l-4.5,7.7l-1.3-11c0.7-0.1,1.3-0.7,1.3-1.4
		c0-0.8-0.6-1.4-1.4-1.4c-0.8,0-1.4,0.6-1.4,1.4c0,0.6,0.4,1.1,1,1.3l-4.2,11.1l-2.8-11.8c0.6-0.1,1.1-0.7,1.1-1.4
		c0-0.8-0.6-1.4-1.4-1.4c-0.8,0-1.4,0.6-1.4,1.4c0,0.7,0.5,1.2,1.1,1.4L22,29.3l-4.3-11.1c0.6-0.2,1-0.7,1-1.3
		c0-0.8-0.6-1.4-1.4-1.4c-0.8,0-1.4,0.6-1.4,1.4c0,0.7,0.6,1.3,1.3,1.4l-1.2,11l-4.8-7.7c0.5-0.2,0.8-0.7,0.8-1.3
		c0-0.8-0.6-1.4-1.4-1.4c-0.8,0-1.4,0.6-1.4,1.4c0,0.8,0.6,1.4,1.4,1.4c0.1,0,0.1,0,0.2,0c0.1,1.1,3.2,13,3.2,13
		c0,0.3,4.1,0.8,11.2,0.8s11.1-0.4,11.1-0.8c0,0,2.9-11.9,3-13c0.1,0,0.1,0,0.2,0c0.8,0,1.4-0.6,1.4-1.4
		C40.9,19.3,40.3,18.7,39.5,18.7z"/>
</g>
</svg>
