<?xml version="1.0" encoding="utf-8"?>
<!-- Generator: Adobe Illustrator 21.0.0, SVG Export Plug-In . SVG Version: 6.00 Build 0)  -->
<svg version="1.1" id="Layer_1" xmlns="http://www.w3.org/2000/svg" xmlns:xlink="http://www.w3.org/1999/xlink" x="0px" y="0px"
	 viewBox="0 0 50 50" style="enable-background:new 0 0 50 50;" xml:space="preserve">
<style type="text/css">
	.st0{fill:#EC1E27;}
	.st1{fill:#A01D22;}
	.st2{fill:url(#SVGID_1_);}
	.st3{fill:url(#SVGID_2_);}
	.st4{fill:url(#SVGID_3_);}
	.st5{fill:url(#SVGID_4_);}
	.st6{fill:url(#SVGID_5_);}
	.st7{fill:url(#SVGID_6_);}
	.st8{fill:url(#SVGID_7_);}
	.st9{fill:url(#SVGID_8_);}
	.st10{fill:url(#SVGID_9_);}
	.st11{fill:url(#SVGID_10_);}
</style>
<g>
	<circle class="st0" cx="25" cy="25" r="25"/>
	<g>
		<path class="st1" d="M30.2,12.1l-0.9,0.2l-1.8-0.9l-2.6,1.5l0.2,3.6l10.6,13.8L35,31.1l-2.3-2.9L14.9,8.9l-1.2,0.8l6.2,12.5
			l-1,4.3l0.8,1l-1.2,0.8L16,37.9l1.4,1.7l-1.9,0.7l6.8,9.5C23.3,50,24.1,50,25,50c10.2,0,19-6.1,22.9-14.9L30.2,12.1z"/>
		<g>
			<linearGradient id="SVGID_1_" gradientUnits="userSpaceOnUse" x1="15.6996" y1="39.5913" x2="41.7008" y2="39.5913">
				<stop  offset="0" style="stop-color:#B46928"/>
				<stop  offset="8.333330e-02" style="stop-color:#CE8C31"/>
				<stop  offset="0.1792" style="stop-color:#CE8C31"/>
				<stop  offset="0.2729" style="stop-color:#DFB158"/>
				<stop  offset="0.3417" style="stop-color:#FDEF9D"/>
				<stop  offset="0.4062" style="stop-color:#FBF7C1"/>
				<stop  offset="0.4844" style="stop-color:#FDEF9D"/>
				<stop  offset="0.587" style="stop-color:#DFB158"/>
				<stop  offset="0.6715" style="stop-color:#CE8C31"/>
				<stop  offset="0.7717" style="stop-color:#C27D2A"/>
				<stop  offset="0.8337" style="stop-color:#CC832A"/>
				<stop  offset="0.8827" style="stop-color:#E4A33A"/>
				<stop  offset="0.9307" style="stop-color:#EFB449"/>
				<stop  offset="1" style="stop-color:#B66A29"/>
			</linearGradient>
			<rect x="35" y="38.8" class="st2" width="3.8" height="1.5"/>
			<linearGradient id="SVGID_2_" gradientUnits="userSpaceOnUse" x1="15.6996" y1="39.5913" x2="41.7008" y2="39.5913">
				<stop  offset="0" style="stop-color:#B46928"/>
				<stop  offset="8.333330e-02" style="stop-color:#CE8C31"/>
				<stop  offset="0.1792" style="stop-color:#CE8C31"/>
				<stop  offset="0.2729" style="stop-color:#DFB158"/>
				<stop  offset="0.3417" style="stop-color:#FDEF9D"/>
				<stop  offset="0.4062" style="stop-color:#FBF7C1"/>
				<stop  offset="0.4844" style="stop-color:#FDEF9D"/>
				<stop  offset="0.587" style="stop-color:#DFB158"/>
				<stop  offset="0.6715" style="stop-color:#CE8C31"/>
				<stop  offset="0.7717" style="stop-color:#C27D2A"/>
				<stop  offset="0.8337" style="stop-color:#CC832A"/>
				<stop  offset="0.8827" style="stop-color:#E4A33A"/>
				<stop  offset="0.9307" style="stop-color:#EFB449"/>
				<stop  offset="1" style="stop-color:#B66A29"/>
			</linearGradient>
			<rect x="15.6" y="38.8" class="st3" width="4.2" height="1.5"/>
			<linearGradient id="SVGID_3_" gradientUnits="userSpaceOnUse" x1="15.6996" y1="14.2078" x2="41.7008" y2="14.2078">
				<stop  offset="0" style="stop-color:#B46928"/>
				<stop  offset="8.333330e-02" style="stop-color:#CE8C31"/>
				<stop  offset="0.1792" style="stop-color:#CE8C31"/>
				<stop  offset="0.2729" style="stop-color:#DFB158"/>
				<stop  offset="0.3417" style="stop-color:#FDEF9D"/>
				<stop  offset="0.4062" style="stop-color:#FBF7C1"/>
				<stop  offset="0.4844" style="stop-color:#FDEF9D"/>
				<stop  offset="0.587" style="stop-color:#DFB158"/>
				<stop  offset="0.6715" style="stop-color:#CE8C31"/>
				<stop  offset="0.7717" style="stop-color:#C27D2A"/>
				<stop  offset="0.8337" style="stop-color:#CC832A"/>
				<stop  offset="0.8827" style="stop-color:#E4A33A"/>
				<stop  offset="0.9307" style="stop-color:#EFB449"/>
				<stop  offset="1" style="stop-color:#B66A29"/>
			</linearGradient>
			<path class="st4" d="M27.6,17.6c1.9,0,3.4-1.5,3.4-3.4s-1.5-3.4-3.4-3.4s-3.4,1.5-3.4,3.4S25.7,17.6,27.6,17.6z M27.6,12
				c1.2,0,2.2,1,2.2,2.2c0,1.2-1,2.2-2.2,2.2s-2.2-1-2.2-2.2C25.4,13,26.3,12,27.6,12z"/>
			<linearGradient id="SVGID_4_" gradientUnits="userSpaceOnUse" x1="15.6996" y1="14.2078" x2="41.7008" y2="14.2078">
				<stop  offset="0" style="stop-color:#B46928"/>
				<stop  offset="8.333330e-02" style="stop-color:#CE8C31"/>
				<stop  offset="0.1792" style="stop-color:#CE8C31"/>
				<stop  offset="0.2729" style="stop-color:#DFB158"/>
				<stop  offset="0.3417" style="stop-color:#FDEF9D"/>
				<stop  offset="0.4062" style="stop-color:#FBF7C1"/>
				<stop  offset="0.4844" style="stop-color:#FDEF9D"/>
				<stop  offset="0.587" style="stop-color:#DFB158"/>
				<stop  offset="0.6715" style="stop-color:#CE8C31"/>
				<stop  offset="0.7717" style="stop-color:#C27D2A"/>
				<stop  offset="0.8337" style="stop-color:#CC832A"/>
				<stop  offset="0.8827" style="stop-color:#E4A33A"/>
				<stop  offset="0.9307" style="stop-color:#EFB449"/>
				<stop  offset="1" style="stop-color:#B66A29"/>
			</linearGradient>
			<circle class="st5" cx="27.6" cy="14.2" r="1"/>
			<linearGradient id="SVGID_5_" gradientUnits="userSpaceOnUse" x1="15.6996" y1="30.7599" x2="41.7008" y2="30.7599">
				<stop  offset="0" style="stop-color:#B46928"/>
				<stop  offset="8.333330e-02" style="stop-color:#CE8C31"/>
				<stop  offset="0.1792" style="stop-color:#CE8C31"/>
				<stop  offset="0.2729" style="stop-color:#DFB158"/>
				<stop  offset="0.3417" style="stop-color:#FDEF9D"/>
				<stop  offset="0.4062" style="stop-color:#FBF7C1"/>
				<stop  offset="0.4844" style="stop-color:#FDEF9D"/>
				<stop  offset="0.587" style="stop-color:#DFB158"/>
				<stop  offset="0.6715" style="stop-color:#CE8C31"/>
				<stop  offset="0.7717" style="stop-color:#C27D2A"/>
				<stop  offset="0.8337" style="stop-color:#CC832A"/>
				<stop  offset="0.8827" style="stop-color:#E4A33A"/>
				<stop  offset="0.9307" style="stop-color:#EFB449"/>
				<stop  offset="1" style="stop-color:#B66A29"/>
			</linearGradient>
			<polygon class="st6" points="34,31.3 35,32.7 38.2,30.1 37.2,28.8 			"/>
			<linearGradient id="SVGID_6_" gradientUnits="userSpaceOnUse" x1="15.6996" y1="32.3983" x2="41.7008" y2="32.3983">
				<stop  offset="0" style="stop-color:#B46928"/>
				<stop  offset="8.333330e-02" style="stop-color:#CE8C31"/>
				<stop  offset="0.1792" style="stop-color:#CE8C31"/>
				<stop  offset="0.2729" style="stop-color:#DFB158"/>
				<stop  offset="0.3417" style="stop-color:#FDEF9D"/>
				<stop  offset="0.4062" style="stop-color:#FBF7C1"/>
				<stop  offset="0.4844" style="stop-color:#FDEF9D"/>
				<stop  offset="0.587" style="stop-color:#DFB158"/>
				<stop  offset="0.6715" style="stop-color:#CE8C31"/>
				<stop  offset="0.7717" style="stop-color:#C27D2A"/>
				<stop  offset="0.8337" style="stop-color:#CC832A"/>
				<stop  offset="0.8827" style="stop-color:#E4A33A"/>
				<stop  offset="0.9307" style="stop-color:#EFB449"/>
				<stop  offset="1" style="stop-color:#B66A29"/>
			</linearGradient>
			<path class="st7" d="M32.5,30.5c-0.3,0.4-0.7,0.6-1.2,0.6c-0.6,0-1.2-0.4-1.4-1L18.4,37l1.8-9.9l-1.3-0.2l-0.8-0.2L16,37.9h5
				l9.9-5.9l4,6l2.6,0L32.5,30.5z"/>
			<linearGradient id="SVGID_7_" gradientUnits="userSpaceOnUse" x1="15.6996" y1="18.8782" x2="41.7008" y2="18.8782">
				<stop  offset="0" style="stop-color:#B46928"/>
				<stop  offset="8.333330e-02" style="stop-color:#CE8C31"/>
				<stop  offset="0.1792" style="stop-color:#CE8C31"/>
				<stop  offset="0.2729" style="stop-color:#DFB158"/>
				<stop  offset="0.3417" style="stop-color:#FDEF9D"/>
				<stop  offset="0.4062" style="stop-color:#FBF7C1"/>
				<stop  offset="0.4844" style="stop-color:#FDEF9D"/>
				<stop  offset="0.587" style="stop-color:#DFB158"/>
				<stop  offset="0.6715" style="stop-color:#CE8C31"/>
				<stop  offset="0.7717" style="stop-color:#C27D2A"/>
				<stop  offset="0.8337" style="stop-color:#CC832A"/>
				<stop  offset="0.8827" style="stop-color:#E4A33A"/>
				<stop  offset="0.9307" style="stop-color:#EFB449"/>
				<stop  offset="1" style="stop-color:#B66A29"/>
			</linearGradient>
			<path class="st8" d="M22,19.8c0.4-0.4,0.2-1.2-0.4-1.7c-0.6-0.5-1.4-0.6-1.8-0.1c-0.4,0.4-0.2,1.2,0.4,1.7
				C20.9,20.2,21.6,20.3,22,19.8z"/>
			<linearGradient id="SVGID_8_" gradientUnits="userSpaceOnUse" x1="15.6996" y1="23.3331" x2="41.7008" y2="23.3331">
				<stop  offset="0" style="stop-color:#B46928"/>
				<stop  offset="8.333330e-02" style="stop-color:#CE8C31"/>
				<stop  offset="0.1792" style="stop-color:#CE8C31"/>
				<stop  offset="0.2729" style="stop-color:#DFB158"/>
				<stop  offset="0.3417" style="stop-color:#FDEF9D"/>
				<stop  offset="0.4062" style="stop-color:#FBF7C1"/>
				<stop  offset="0.4844" style="stop-color:#FDEF9D"/>
				<stop  offset="0.587" style="stop-color:#DFB158"/>
				<stop  offset="0.6715" style="stop-color:#CE8C31"/>
				<stop  offset="0.7717" style="stop-color:#C27D2A"/>
				<stop  offset="0.8337" style="stop-color:#CC832A"/>
				<stop  offset="0.8827" style="stop-color:#E4A33A"/>
				<stop  offset="0.9307" style="stop-color:#EFB449"/>
				<stop  offset="1" style="stop-color:#B66A29"/>
			</linearGradient>
			<path class="st9" d="M18.8,26.5l0.9,0.2l1.3-6.2c-0.3,0-0.5-0.2-0.8-0.4L18.8,26.5z"/>
			<linearGradient id="SVGID_9_" gradientUnits="userSpaceOnUse" x1="15.6996" y1="18.5304" x2="41.7008" y2="18.5304">
				<stop  offset="0" style="stop-color:#B46928"/>
				<stop  offset="8.333330e-02" style="stop-color:#CE8C31"/>
				<stop  offset="0.1792" style="stop-color:#CE8C31"/>
				<stop  offset="0.2729" style="stop-color:#DFB158"/>
				<stop  offset="0.3417" style="stop-color:#FDEF9D"/>
				<stop  offset="0.4062" style="stop-color:#FBF7C1"/>
				<stop  offset="0.4844" style="stop-color:#FDEF9D"/>
				<stop  offset="0.587" style="stop-color:#DFB158"/>
				<stop  offset="0.6715" style="stop-color:#CE8C31"/>
				<stop  offset="0.7717" style="stop-color:#C27D2A"/>
				<stop  offset="0.8337" style="stop-color:#CC832A"/>
				<stop  offset="0.8827" style="stop-color:#E4A33A"/>
				<stop  offset="0.9307" style="stop-color:#EFB449"/>
				<stop  offset="1" style="stop-color:#B66A29"/>
			</linearGradient>
			<path class="st10" d="M15.7,12.8l4.1,4.7c0.2-0.1,0.5-0.2,0.7-0.1c0.1,0,0.2,0,0.4,0.1c0.3,0.1,0.6,0.2,0.8,0.5
				c0.5,0.4,0.7,0.9,0.8,1.4c0,0.1,0,0.2,0,0.3c0,0.2-0.1,0.4-0.2,0.5c0,0-0.1,0.1-0.1,0.1l7.7,8.6c0.1-0.3,0.2-0.5,0.4-0.7
				c0,0,0.1,0,0.1-0.1c0.3-0.2,0.6-0.4,1-0.4c0.5,0,1,0.2,1.3,0.6c0-0.1-0.1-0.2-0.2-0.3L15,8.6c-0.3-0.4-0.9-0.4-1.2-0.1
				c-0.4,0.3-0.4,0.9-0.1,1.2l2.4,2.7L15.7,12.8z"/>
			<linearGradient id="SVGID_10_" gradientUnits="userSpaceOnUse" x1="15.6996" y1="29.225" x2="41.7008" y2="29.225">
				<stop  offset="0" style="stop-color:#B46928"/>
				<stop  offset="8.333330e-02" style="stop-color:#CE8C31"/>
				<stop  offset="0.1792" style="stop-color:#CE8C31"/>
				<stop  offset="0.2729" style="stop-color:#DFB158"/>
				<stop  offset="0.3417" style="stop-color:#FDEF9D"/>
				<stop  offset="0.4062" style="stop-color:#FBF7C1"/>
				<stop  offset="0.4844" style="stop-color:#FDEF9D"/>
				<stop  offset="0.587" style="stop-color:#DFB158"/>
				<stop  offset="0.6715" style="stop-color:#CE8C31"/>
				<stop  offset="0.7717" style="stop-color:#C27D2A"/>
				<stop  offset="0.8337" style="stop-color:#CC832A"/>
				<stop  offset="0.8827" style="stop-color:#E4A33A"/>
				<stop  offset="0.9307" style="stop-color:#EFB449"/>
				<stop  offset="1" style="stop-color:#B66A29"/>
			</linearGradient>
			<circle class="st11" cx="31.4" cy="29.2" r="1.2"/>
		</g>
	</g>
</g>
</svg>
