<?xml version="1.0" encoding="utf-8"?>
<!-- Generator: Adobe Illustrator 21.0.0, SVG Export Plug-In . SVG Version: 6.00 Build 0)  -->
<svg version="1.1" id="Layer_1" xmlns="http://www.w3.org/2000/svg" xmlns:xlink="http://www.w3.org/1999/xlink" x="0px" y="0px"
	 viewBox="0 0 50 50" style="enable-background:new 0 0 50 50;" xml:space="preserve">
<style type="text/css">
	.st0{fill:#EC1E27;}
	.st1{fill:#A01D22;}
	.st2{fill:url(#SVGID_1_);}
	.st3{fill:url(#SVGID_2_);}
	.st4{fill:url(#SVGID_3_);}
	.st5{fill:url(#SVGID_4_);}
	.st6{fill:url(#SVGID_5_);}
</style>
<g>
	<circle class="st0" cx="25" cy="25" r="25"/>
	<g>
		<path class="st1" d="M48.3,34L32.7,14.2l-5.3-4.2l-3.5,3.1L20,14.3l1.6,3l-1.4,3.1L19,15.6l-1.4,0.9L15,17.6L12.9,26l11.2,24
			c0.3,0,0.6,0,0.9,0C35.6,50,44.7,43.4,48.3,34z"/>
		<g>
			<linearGradient id="SVGID_1_" gradientUnits="userSpaceOnUse" x1="12.4722" y1="22.9794" x2="40.5436" y2="22.9794">
				<stop  offset="0" style="stop-color:#B46928"/>
				<stop  offset="8.333330e-02" style="stop-color:#CE8C31"/>
				<stop  offset="0.1792" style="stop-color:#CE8C31"/>
				<stop  offset="0.2729" style="stop-color:#DFB158"/>
				<stop  offset="0.3417" style="stop-color:#FDEF9D"/>
				<stop  offset="0.4062" style="stop-color:#FBF7C1"/>
				<stop  offset="0.4844" style="stop-color:#FDEF9D"/>
				<stop  offset="0.587" style="stop-color:#DFB158"/>
				<stop  offset="0.6715" style="stop-color:#CE8C31"/>
				<stop  offset="0.7717" style="stop-color:#C27D2A"/>
				<stop  offset="0.8337" style="stop-color:#CC832A"/>
				<stop  offset="0.8827" style="stop-color:#E4A33A"/>
				<stop  offset="0.9307" style="stop-color:#EFB449"/>
				<stop  offset="1" style="stop-color:#B66A29"/>
			</linearGradient>
			<path class="st2" d="M12.8,21.1v3.7c0,3,2.4,5.4,5.4,5.4h1.6c0.2,0,0.4-0.2,0.3-0.4L20,28.4c0-0.2-0.2-0.3-0.3-0.3h-1.5
				c-1.8,0-3.3-1.5-3.3-3.3v-3.7c0-1.8,1.5-3.3,3.3-3.3h0.5c0.2,0,0.4-0.2,0.3-0.4l0-0.5c0,0,0,0,0,0l0-1.2v0h-0.8
				C15.2,15.7,12.8,18.1,12.8,21.1z"/>
			<linearGradient id="SVGID_2_" gradientUnits="userSpaceOnUse" x1="12.4722" y1="12.0576" x2="40.5436" y2="12.0576">
				<stop  offset="0" style="stop-color:#B46928"/>
				<stop  offset="8.333330e-02" style="stop-color:#CE8C31"/>
				<stop  offset="0.1792" style="stop-color:#CE8C31"/>
				<stop  offset="0.2729" style="stop-color:#DFB158"/>
				<stop  offset="0.3417" style="stop-color:#FDEF9D"/>
				<stop  offset="0.4062" style="stop-color:#FBF7C1"/>
				<stop  offset="0.4844" style="stop-color:#FDEF9D"/>
				<stop  offset="0.587" style="stop-color:#DFB158"/>
				<stop  offset="0.6715" style="stop-color:#CE8C31"/>
				<stop  offset="0.7717" style="stop-color:#C27D2A"/>
				<stop  offset="0.8337" style="stop-color:#CC832A"/>
				<stop  offset="0.8827" style="stop-color:#E4A33A"/>
				<stop  offset="0.9307" style="stop-color:#EFB449"/>
				<stop  offset="1" style="stop-color:#B66A29"/>
			</linearGradient>
			<path class="st3" d="M20,14.2h12.7c-0.5-1.7-2-2.9-3.8-2.9h-1.5V9.9h-2.1v1.4h-1.5C22,11.3,20.5,12.5,20,14.2z"/>
			<linearGradient id="SVGID_3_" gradientUnits="userSpaceOnUse" x1="12.4722" y1="36.4939" x2="40.5436" y2="36.4939">
				<stop  offset="0" style="stop-color:#B46928"/>
				<stop  offset="8.333330e-02" style="stop-color:#CE8C31"/>
				<stop  offset="0.1792" style="stop-color:#CE8C31"/>
				<stop  offset="0.2729" style="stop-color:#DFB158"/>
				<stop  offset="0.3417" style="stop-color:#FDEF9D"/>
				<stop  offset="0.4062" style="stop-color:#FBF7C1"/>
				<stop  offset="0.4844" style="stop-color:#FDEF9D"/>
				<stop  offset="0.587" style="stop-color:#DFB158"/>
				<stop  offset="0.6715" style="stop-color:#CE8C31"/>
				<stop  offset="0.7717" style="stop-color:#C27D2A"/>
				<stop  offset="0.8337" style="stop-color:#CC832A"/>
				<stop  offset="0.8827" style="stop-color:#E4A33A"/>
				<stop  offset="0.9307" style="stop-color:#EFB449"/>
				<stop  offset="1" style="stop-color:#B66A29"/>
			</linearGradient>
			<path class="st4" d="M31,31.8h-9.2c-0.4,0-0.8,0.3-0.9,0.7l-1,4.7v3c0,0.5,0.4,0.9,0.9,0.9H32c0.5,0,0.9-0.4,0.9-0.9v-3l-1-4.7
				C31.8,32.1,31.4,31.8,31,31.8z M26.6,35.6c-0.8,0.1-1.4-0.5-1.3-1.3c0.1-0.5,0.5-0.8,0.9-0.9c0.8-0.1,1.4,0.5,1.3,1.3
				C27.4,35.1,27,35.5,26.6,35.6z"/>
			<linearGradient id="SVGID_4_" gradientUnits="userSpaceOnUse" x1="12.4722" y1="23.0326" x2="40.5436" y2="23.0326">
				<stop  offset="0" style="stop-color:#B46928"/>
				<stop  offset="8.333330e-02" style="stop-color:#CE8C31"/>
				<stop  offset="0.1792" style="stop-color:#CE8C31"/>
				<stop  offset="0.2729" style="stop-color:#DFB158"/>
				<stop  offset="0.3417" style="stop-color:#FDEF9D"/>
				<stop  offset="0.4062" style="stop-color:#FBF7C1"/>
				<stop  offset="0.4844" style="stop-color:#FDEF9D"/>
				<stop  offset="0.587" style="stop-color:#DFB158"/>
				<stop  offset="0.6715" style="stop-color:#CE8C31"/>
				<stop  offset="0.7717" style="stop-color:#C27D2A"/>
				<stop  offset="0.8337" style="stop-color:#CC832A"/>
				<stop  offset="0.8827" style="stop-color:#E4A33A"/>
				<stop  offset="0.9307" style="stop-color:#EFB449"/>
				<stop  offset="1" style="stop-color:#B66A29"/>
			</linearGradient>
			<path class="st5" d="M19.9,15.5c0,0,0,1,0,1l1.3,13.9c0,0.1,0.1,0.2,0.3,0.2h10c0.1,0,0.2-0.1,0.3-0.2l1.1-12.6
				c0-0.1,0.1-0.2,0.3-0.2h0.7c0.1,0,0.2-0.1,0.3-0.2l0.2-1.6c0-0.2-0.1-0.3-0.3-0.3L19.9,15.5z M29.7,28.7h-6.5
				c-0.1,0-0.2-0.1-0.3-0.2l-1-10.7c0-0.2,0.1-0.3,0.3-0.3h8.4c0.2,0,0.3,0.1,0.3,0.3l-1,10.7C29.9,28.6,29.8,28.7,29.7,28.7z"/>
			<linearGradient id="SVGID_5_" gradientUnits="userSpaceOnUse" x1="12.4722" y1="24.888" x2="40.5436" y2="24.888">
				<stop  offset="0" style="stop-color:#B46928"/>
				<stop  offset="8.333330e-02" style="stop-color:#CE8C31"/>
				<stop  offset="0.1792" style="stop-color:#CE8C31"/>
				<stop  offset="0.2729" style="stop-color:#DFB158"/>
				<stop  offset="0.3417" style="stop-color:#FDEF9D"/>
				<stop  offset="0.4062" style="stop-color:#FBF7C1"/>
				<stop  offset="0.4844" style="stop-color:#FDEF9D"/>
				<stop  offset="0.587" style="stop-color:#DFB158"/>
				<stop  offset="0.6715" style="stop-color:#CE8C31"/>
				<stop  offset="0.7717" style="stop-color:#C27D2A"/>
				<stop  offset="0.8337" style="stop-color:#CC832A"/>
				<stop  offset="0.8827" style="stop-color:#E4A33A"/>
				<stop  offset="0.9307" style="stop-color:#EFB449"/>
				<stop  offset="1" style="stop-color:#B66A29"/>
			</linearGradient>
			<path class="st6" d="M24.6,28h3.8c0.4,0,0.7-0.3,0.7-0.7l0.4-4.7c0-0.4-0.2-0.7-0.5-0.8c-0.6-0.2-1.7-0.3-2.7,0.2
				c-0.8,0.4-1.5,0.4-2.1,0.3c-0.5-0.1-0.9,0.3-0.8,0.8l0.5,4.2C24,27.7,24.3,28,24.6,28z"/>
		</g>
	</g>
</g>
</svg>
