<?xml version="1.0" encoding="utf-8"?>
<!-- Generator: Adobe Illustrator 21.0.0, SVG Export Plug-In . SVG Version: 6.00 Build 0)  -->
<svg version="1.1" id="Layer_1" xmlns="http://www.w3.org/2000/svg" xmlns:xlink="http://www.w3.org/1999/xlink" x="0px" y="0px"
	 viewBox="0 0 50 50" style="enable-background:new 0 0 50 50;" xml:space="preserve">
<style type="text/css">
	.st0{fill:#EC1E27;}
	.st1{fill:#A01D22;}
	.st2{fill:url(#SVGID_1_);}
</style>
<g>
	<circle class="st0" cx="25" cy="25" r="25"/>
	<g>
		<path class="st1" d="M48.8,32.5L42,23.9l-5.6-0.4c-8.3-1.8-9.6-4.6-9.6-4.6l-5.2-1.1l1.6,7.6l-10.5-3.8l5.1,8.9l-7.5-8.8L9,30.6
			l12.5,19.2c1.1,0.2,2.3,0.2,3.4,0.2C36.2,50,45.6,42.7,48.8,32.5z"/>
		<g>
			<linearGradient id="SVGID_1_" gradientUnits="userSpaceOnUse" x1="8.4949" y1="24.3891" x2="41.8584" y2="24.3891">
				<stop  offset="0" style="stop-color:#B46928"/>
				<stop  offset="8.333330e-02" style="stop-color:#CE8C31"/>
				<stop  offset="0.1792" style="stop-color:#CE8C31"/>
				<stop  offset="0.2729" style="stop-color:#DFB158"/>
				<stop  offset="0.3417" style="stop-color:#FDEF9D"/>
				<stop  offset="0.4062" style="stop-color:#FBF7C1"/>
				<stop  offset="0.4844" style="stop-color:#FDEF9D"/>
				<stop  offset="0.587" style="stop-color:#DFB158"/>
				<stop  offset="0.6715" style="stop-color:#CE8C31"/>
				<stop  offset="0.7717" style="stop-color:#C27D2A"/>
				<stop  offset="0.8337" style="stop-color:#CC832A"/>
				<stop  offset="0.8827" style="stop-color:#E4A33A"/>
				<stop  offset="0.9307" style="stop-color:#EFB449"/>
				<stop  offset="1" style="stop-color:#B66A29"/>
			</linearGradient>
			<path class="st2" d="M39.8,23.6c-1-0.2-2.7-0.2-4.8-0.6l0.3,1.7c0,0.3-0.1,0.6-0.4,0.6c0,0-0.1,0-0.1,0c-0.3,0-0.5-0.2-0.5-0.4
				l-0.3-1.8c0-0.2-0.2-0.4-0.4-0.4c-0.1,0-0.2-0.1-0.3-0.1c-0.2-0.1-0.3,0.1-0.3,0.2l0.1,0.9c0,0.3-0.1,0.6-0.4,0.6
				c0,0-0.1,0-0.1,0c-0.3,0-0.5-0.2-0.5-0.4l-0.2-1.5c0-0.2-0.2-0.4-0.4-0.5c-0.1-0.1-0.3-0.1-0.4-0.2c-0.2-0.1-0.3,0-0.3,0.2
				l0.1,0.8c0,0.3-0.1,0.6-0.4,0.6c0,0-0.1,0-0.1,0c-0.3,0-0.5-0.2-0.5-0.4l-0.3-1.6c0-0.2-0.2-0.4-0.4-0.5
				c-0.2-0.1-0.3-0.2-0.5-0.3c-0.2-0.1-0.3,0-0.2,0.1l0.2,1.1c0,0.3-0.1,0.6-0.4,0.6c0,0-0.1,0-0.1,0c-0.3,0-0.5-0.2-0.5-0.4
				l-0.5-2.7c-0.1-0.1-0.2-0.2-0.3-0.3c-0.7-0.9-2-2.4-3-2.8c-1.1-0.4-2,0.4-2.2,1.2c-0.1,0.4,0.1,1,0.2,1.4
				c0.1,0.2,0.2,0.5,0.4,0.7c0.3,0.3,0.4,0.6,0.1,0.9c-0.7,0.6-2,1.6-3.5,2.1c-2.9,1.1-3.5-0.4-3.5-0.4s-0.7-2.1-1.7-2.9
				c-0.3-0.2-1-0.3-1.3-0.2c-0.1,0-0.3,0.1-0.4,0.1c0.2,1.4,1.3,4.6,5.7,6.8c5.8,2.8,17.3,3.4,19.5,3.4c0.2,0,0.2,0,0,0.1
				c-1.4,0.2-6.9,1-12.3,0.4c-6.7-0.8-12.8-2.7-14.4-8.1c0,0.1-0.1,0.2-0.1,0.3C10,22.7,9.8,23.2,9.8,25c0,0.4-0.2,1-0.3,1.3
				c-0.2,0.4-0.3,1.1-0.4,1.9c0,0.8,0,1.5,0,1.9c0,0.4,0.3,0.9,0.6,1.1c0.2,0.1,0.5,0.3,0.9,0.4c0.4,0.1,1,0.3,1.3,0.4
				c0.2,0.1,0.3,0.1,0.6,0.1c0.4,0,0.8,0,1,0c0.2,0,0.3,0.1,0.3,0.2s0.2,0.2,0.5,0.2c0.3,0,0.5-0.1,0.6-0.2c0.1-0.1,0.3-0.2,0.4-0.2
				c0.1,0,0.2,0.1,0.2,0.2c0,0.1,0.2,0.2,0.4,0.2s0.5-0.1,0.6-0.3c0.1-0.1,0.2-0.3,0.4-0.3c0.1,0,0.3,0.1,0.4,0.3
				c0.1,0.1,0.3,0.3,0.5,0.3c0.2,0,0.4-0.1,0.5-0.2c0.1-0.1,0.3-0.1,0.4,0c0.2,0.1,0.5,0.2,0.8,0.2c0.3,0,0.5-0.1,0.6-0.2
				c0-0.1,0.2-0.2,0.3-0.2c0.1,0,0.3,0.1,0.4,0.2c0.1,0.1,0.4,0.1,0.6,0.1c0.3-0.1,0.5-0.2,0.6-0.4c0.1-0.1,0.2-0.2,0.3-0.1
				c0.1,0.1,0.4,0.2,0.7,0.3c0.3,0,0.6,0,0.7-0.1c0.1-0.1,0.3-0.2,0.5-0.1c0.1,0,0.2,0.1,0.2,0.3c0,0.1,0.2,0.2,0.5,0.2
				c0.3,0,0.6-0.1,0.7-0.1c0.1-0.1,0.3-0.1,0.4-0.1c0.1,0,0.3,0.1,0.3,0.2s0.1,0.1,0.3,0.1c0.2,0,0.4-0.1,0.6-0.1
				c0.1-0.1,0.3-0.1,0.4-0.1c0.1,0,0.2,0.1,0.2,0.2c0,0.1,0.3,0.2,0.7,0.2h0.1c0.4,0,0.7-0.1,0.7-0.2c0-0.1,0.1-0.2,0.2-0.2
				c0.1,0,0.3,0.1,0.3,0.2c0,0.1,0.3,0.2,0.6,0.2s0.7-0.1,0.9-0.2c0.1-0.1,0.4-0.1,0.5,0c0.1,0.1,0.5,0.2,0.9,0.2
				c0.4,0,0.8-0.1,0.8-0.2c0.1-0.1,0.3-0.2,0.4-0.3c0.1,0,0.3,0,0.4,0.1c0.1,0.1,0.4,0.1,0.8,0.1l0.1,0c0.4-0.1,0.7-0.3,0.8-0.4
				c0-0.2,0.2-0.3,0.3-0.3c0.1,0,0.2,0.1,0.3,0.2c0.1,0.1,0.4,0.2,0.6,0.1c0.3-0.1,0.5-0.3,0.5-0.5c0-0.2,0.2-0.5,0.4-0.5
				c0.2-0.1,0.3,0,0.3,0.2c0,0.2,0.3,0.2,0.7,0c0.4-0.1,0.7-0.4,0.7-0.5c0-0.2,0.1-0.3,0.2-0.4c0.1,0,0.3,0,0.4,0
				c0.1,0.1,0.3,0,0.5-0.1c0.2-0.1,0.4-0.4,0.4-0.5c0-0.1,0.3-0.4,0.6-0.7c0.6-0.5,1.4-1.6,1-3.3C42.4,23.3,41.9,24,39.8,23.6z"/>
		</g>
	</g>
</g>
</svg>
