<?xml version="1.0" encoding="utf-8"?>
<!-- Generator: Adobe Illustrator 21.0.0, SVG Export Plug-In . SVG Version: 6.00 Build 0)  -->
<svg version="1.1" id="Layer_1" xmlns="http://www.w3.org/2000/svg" xmlns:xlink="http://www.w3.org/1999/xlink" x="0px" y="0px"
	 viewBox="0 0 50 50" style="enable-background:new 0 0 50 50;" xml:space="preserve">
<style type="text/css">
	.st0{fill:#EC1E27;}
	.st1{fill:#A01D22;}
	.st2{fill:url(#SVGID_1_);}
	.st3{fill:url(#SVGID_2_);}
	.st4{fill:url(#SVGID_3_);}
	.st5{fill:url(#SVGID_4_);}
	.st6{fill:url(#SVGID_5_);}
	.st7{fill:url(#SVGID_6_);}
	.st8{fill:url(#SVGID_7_);}
	.st9{fill:url(#SVGID_8_);}
	.st10{fill:url(#SVGID_9_);}
	.st11{fill:url(#SVGID_10_);}
</style>
<g>
	<circle class="st0" cx="25" cy="25" r="25"/>
	<g>
		<path class="st1" d="M49.7,28.8L33.8,8.6l-0.4,3.2l-2.3-4l-6,3.7l1.3,1.8l-2.5-0.2l2.1,2.9l-2,0.4l7.6,11.5L31.5,29l-8.8-13.3
			L18,15.9l9.9,15L8.7,31.6l1.5,2.1l-1.1,2.1l1.2,1.2l-1.1,0.5L18,49c2.2,0.6,4.6,1,7,1C37.5,50,47.9,40.8,49.7,28.8z"/>
		<g>
			<g>
				<linearGradient id="SVGID_1_" gradientUnits="userSpaceOnUse" x1="6.6543" y1="9.5747" x2="54.4207" y2="9.5747">
					<stop  offset="0" style="stop-color:#B46928"/>
					<stop  offset="8.333330e-02" style="stop-color:#CE8C31"/>
					<stop  offset="0.1792" style="stop-color:#CE8C31"/>
					<stop  offset="0.2729" style="stop-color:#DFB158"/>
					<stop  offset="0.3417" style="stop-color:#FDEF9D"/>
					<stop  offset="0.4062" style="stop-color:#FBF7C1"/>
					<stop  offset="0.4844" style="stop-color:#FDEF9D"/>
					<stop  offset="0.587" style="stop-color:#DFB158"/>
					<stop  offset="0.6715" style="stop-color:#CE8C31"/>
					<stop  offset="0.7717" style="stop-color:#C27D2A"/>
					<stop  offset="0.8337" style="stop-color:#CC832A"/>
					<stop  offset="0.8827" style="stop-color:#E4A33A"/>
					<stop  offset="0.9307" style="stop-color:#EFB449"/>
					<stop  offset="1" style="stop-color:#B66A29"/>
				</linearGradient>
				<polygon class="st2" points="25,11.4 31.1,11.4 31.1,7.7 25.1,10.4 				"/>
				<linearGradient id="SVGID_2_" gradientUnits="userSpaceOnUse" x1="6.6543" y1="10.6573" x2="54.4207" y2="10.6573">
					<stop  offset="0" style="stop-color:#B46928"/>
					<stop  offset="8.333330e-02" style="stop-color:#CE8C31"/>
					<stop  offset="0.1792" style="stop-color:#CE8C31"/>
					<stop  offset="0.2729" style="stop-color:#DFB158"/>
					<stop  offset="0.3417" style="stop-color:#FDEF9D"/>
					<stop  offset="0.4062" style="stop-color:#FBF7C1"/>
					<stop  offset="0.4844" style="stop-color:#FDEF9D"/>
					<stop  offset="0.587" style="stop-color:#DFB158"/>
					<stop  offset="0.6715" style="stop-color:#CE8C31"/>
					<stop  offset="0.7717" style="stop-color:#C27D2A"/>
					<stop  offset="0.8337" style="stop-color:#CC832A"/>
					<stop  offset="0.8827" style="stop-color:#E4A33A"/>
					<stop  offset="0.9307" style="stop-color:#EFB449"/>
					<stop  offset="1" style="stop-color:#B66A29"/>
				</linearGradient>
				<path class="st3" d="M32.9,7.7h-1.1v4.5h-8v0.4c0,0.5,0.4,0.9,0.9,0.9h8.3c0.5,0,0.9-0.4,0.9-0.9V8.6
					C33.8,8.1,33.4,7.7,32.9,7.7z"/>
			</g>
			<g>
				<linearGradient id="SVGID_3_" gradientUnits="userSpaceOnUse" x1="6.6543" y1="15.8287" x2="54.4207" y2="15.8287">
					<stop  offset="0" style="stop-color:#B46928"/>
					<stop  offset="8.333330e-02" style="stop-color:#CE8C31"/>
					<stop  offset="0.1792" style="stop-color:#CE8C31"/>
					<stop  offset="0.2729" style="stop-color:#DFB158"/>
					<stop  offset="0.3417" style="stop-color:#FDEF9D"/>
					<stop  offset="0.4062" style="stop-color:#FBF7C1"/>
					<stop  offset="0.4844" style="stop-color:#FDEF9D"/>
					<stop  offset="0.587" style="stop-color:#DFB158"/>
					<stop  offset="0.6715" style="stop-color:#CE8C31"/>
					<stop  offset="0.7717" style="stop-color:#C27D2A"/>
					<stop  offset="0.8337" style="stop-color:#CC832A"/>
					<stop  offset="0.8827" style="stop-color:#E4A33A"/>
					<stop  offset="0.9307" style="stop-color:#EFB449"/>
					<stop  offset="1" style="stop-color:#B66A29"/>
				</linearGradient>
				<path class="st4" d="M22.8,15.8c0,0.4-0.3,0.6-0.6,0.6h-3.5c-0.4,0-0.6-0.3-0.6-0.6l0,0c0-0.4,0.3-0.6,0.6-0.6h3.5
					C22.5,15.2,22.8,15.5,22.8,15.8L22.8,15.8z"/>
			</g>
			<linearGradient id="SVGID_4_" gradientUnits="userSpaceOnUse" x1="6.6543" y1="28.4166" x2="54.4207" y2="28.4166">
				<stop  offset="0" style="stop-color:#B46928"/>
				<stop  offset="8.333330e-02" style="stop-color:#CE8C31"/>
				<stop  offset="0.1792" style="stop-color:#CE8C31"/>
				<stop  offset="0.2729" style="stop-color:#DFB158"/>
				<stop  offset="0.3417" style="stop-color:#FDEF9D"/>
				<stop  offset="0.4062" style="stop-color:#FBF7C1"/>
				<stop  offset="0.4844" style="stop-color:#FDEF9D"/>
				<stop  offset="0.587" style="stop-color:#DFB158"/>
				<stop  offset="0.6715" style="stop-color:#CE8C31"/>
				<stop  offset="0.7717" style="stop-color:#C27D2A"/>
				<stop  offset="0.8337" style="stop-color:#CC832A"/>
				<stop  offset="0.8827" style="stop-color:#E4A33A"/>
				<stop  offset="0.9307" style="stop-color:#EFB449"/>
				<stop  offset="1" style="stop-color:#B66A29"/>
			</linearGradient>
			<path class="st5" d="M40.6,30.1v-1.4c0-1.1-0.7-1.9-1.6-1.9h-7.8c-0.9,0-1.6,0.9-1.6,1.9v1.4H40.6z"/>
			<g>
				<g>
					<linearGradient id="SVGID_5_" gradientUnits="userSpaceOnUse" x1="6.6543" y1="37.1161" x2="54.4207" y2="37.1161">
						<stop  offset="0" style="stop-color:#B46928"/>
						<stop  offset="8.333330e-02" style="stop-color:#CE8C31"/>
						<stop  offset="0.1792" style="stop-color:#CE8C31"/>
						<stop  offset="0.2729" style="stop-color:#DFB158"/>
						<stop  offset="0.3417" style="stop-color:#FDEF9D"/>
						<stop  offset="0.4062" style="stop-color:#FBF7C1"/>
						<stop  offset="0.4844" style="stop-color:#FDEF9D"/>
						<stop  offset="0.587" style="stop-color:#DFB158"/>
						<stop  offset="0.6715" style="stop-color:#CE8C31"/>
						<stop  offset="0.7717" style="stop-color:#C27D2A"/>
						<stop  offset="0.8337" style="stop-color:#CC832A"/>
						<stop  offset="0.8827" style="stop-color:#E4A33A"/>
						<stop  offset="0.9307" style="stop-color:#EFB449"/>
						<stop  offset="1" style="stop-color:#B66A29"/>
					</linearGradient>
					<rect x="9.2" y="36.7" class="st6" width="7.7" height="0.8"/>
				</g>
				<g>
					<linearGradient id="SVGID_6_" gradientUnits="userSpaceOnUse" x1="6.6543" y1="37.1161" x2="54.4207" y2="37.1161">
						<stop  offset="0" style="stop-color:#B46928"/>
						<stop  offset="8.333330e-02" style="stop-color:#CE8C31"/>
						<stop  offset="0.1792" style="stop-color:#CE8C31"/>
						<stop  offset="0.2729" style="stop-color:#DFB158"/>
						<stop  offset="0.3417" style="stop-color:#FDEF9D"/>
						<stop  offset="0.4062" style="stop-color:#FBF7C1"/>
						<stop  offset="0.4844" style="stop-color:#FDEF9D"/>
						<stop  offset="0.587" style="stop-color:#DFB158"/>
						<stop  offset="0.6715" style="stop-color:#CE8C31"/>
						<stop  offset="0.7717" style="stop-color:#C27D2A"/>
						<stop  offset="0.8337" style="stop-color:#CC832A"/>
						<stop  offset="0.8827" style="stop-color:#E4A33A"/>
						<stop  offset="0.9307" style="stop-color:#EFB449"/>
						<stop  offset="1" style="stop-color:#B66A29"/>
					</linearGradient>
					<rect x="32.9" y="36.7" class="st7" width="7.7" height="0.8"/>
				</g>
			</g>
			<linearGradient id="SVGID_7_" gradientUnits="userSpaceOnUse" x1="6.6543" y1="34.3281" x2="54.4207" y2="34.3281">
				<stop  offset="0" style="stop-color:#B46928"/>
				<stop  offset="8.333330e-02" style="stop-color:#CE8C31"/>
				<stop  offset="0.1792" style="stop-color:#CE8C31"/>
				<stop  offset="0.2729" style="stop-color:#DFB158"/>
				<stop  offset="0.3417" style="stop-color:#FDEF9D"/>
				<stop  offset="0.4062" style="stop-color:#FBF7C1"/>
				<stop  offset="0.4844" style="stop-color:#FDEF9D"/>
				<stop  offset="0.587" style="stop-color:#DFB158"/>
				<stop  offset="0.6715" style="stop-color:#CE8C31"/>
				<stop  offset="0.7717" style="stop-color:#C27D2A"/>
				<stop  offset="0.8337" style="stop-color:#CC832A"/>
				<stop  offset="0.8827" style="stop-color:#E4A33A"/>
				<stop  offset="0.9307" style="stop-color:#EFB449"/>
				<stop  offset="1" style="stop-color:#B66A29"/>
			</linearGradient>
			<path class="st8" d="M9.1,32.9v2.9h31.6v-2.9H9.1z M13,34.9h-2.1v-1.2H13V34.9z M15.8,34.9h-1.6v-1.2h1.6V34.9z M18.4,34.9H17
				v-1.2h1.3V34.9z M39.5,34.7H25.9v-0.9h13.6V34.7z"/>
			<linearGradient id="SVGID_8_" gradientUnits="userSpaceOnUse" x1="6.6543" y1="31.4071" x2="54.4207" y2="31.4071">
				<stop  offset="0" style="stop-color:#B46928"/>
				<stop  offset="8.333330e-02" style="stop-color:#CE8C31"/>
				<stop  offset="0.1792" style="stop-color:#CE8C31"/>
				<stop  offset="0.2729" style="stop-color:#DFB158"/>
				<stop  offset="0.3417" style="stop-color:#FDEF9D"/>
				<stop  offset="0.4062" style="stop-color:#FBF7C1"/>
				<stop  offset="0.4844" style="stop-color:#FDEF9D"/>
				<stop  offset="0.587" style="stop-color:#DFB158"/>
				<stop  offset="0.6715" style="stop-color:#CE8C31"/>
				<stop  offset="0.7717" style="stop-color:#C27D2A"/>
				<stop  offset="0.8337" style="stop-color:#CC832A"/>
				<stop  offset="0.8827" style="stop-color:#E4A33A"/>
				<stop  offset="0.9307" style="stop-color:#EFB449"/>
				<stop  offset="1" style="stop-color:#B66A29"/>
			</linearGradient>
			<path class="st9" d="M41.2,31.4c0,0.3-0.2,0.5-0.5,0.5H9.2c-0.3,0-0.5-0.2-0.5-0.5l0,0c0-0.3,0.2-0.5,0.5-0.5h31.5
				C40.9,30.9,41.2,31.1,41.2,31.4L41.2,31.4z"/>
			<linearGradient id="SVGID_9_" gradientUnits="userSpaceOnUse" x1="6.6543" y1="15.6857" x2="54.4207" y2="15.6857">
				<stop  offset="0" style="stop-color:#B46928"/>
				<stop  offset="8.333330e-02" style="stop-color:#CE8C31"/>
				<stop  offset="0.1792" style="stop-color:#CE8C31"/>
				<stop  offset="0.2729" style="stop-color:#DFB158"/>
				<stop  offset="0.3417" style="stop-color:#FDEF9D"/>
				<stop  offset="0.4062" style="stop-color:#FBF7C1"/>
				<stop  offset="0.4844" style="stop-color:#FDEF9D"/>
				<stop  offset="0.587" style="stop-color:#DFB158"/>
				<stop  offset="0.6715" style="stop-color:#CE8C31"/>
				<stop  offset="0.7717" style="stop-color:#C27D2A"/>
				<stop  offset="0.8337" style="stop-color:#CC832A"/>
				<stop  offset="0.8827" style="stop-color:#E4A33A"/>
				<stop  offset="0.9307" style="stop-color:#EFB449"/>
				<stop  offset="1" style="stop-color:#B66A29"/>
			</linearGradient>
			<path class="st10" d="M33.9,15.7c0,0.6-0.4,1-1,1h-8.2c-0.6,0-1-0.4-1-1l0,0c0-0.6,0.4-1,1-1h8.2C33.4,14.7,33.9,15.1,33.9,15.7
				L33.9,15.7z"/>
			<linearGradient id="SVGID_10_" gradientUnits="userSpaceOnUse" x1="6.6543" y1="21.4215" x2="54.4207" y2="21.4215">
				<stop  offset="0" style="stop-color:#B46928"/>
				<stop  offset="8.333330e-02" style="stop-color:#CE8C31"/>
				<stop  offset="0.1792" style="stop-color:#CE8C31"/>
				<stop  offset="0.2729" style="stop-color:#DFB158"/>
				<stop  offset="0.3417" style="stop-color:#FDEF9D"/>
				<stop  offset="0.4062" style="stop-color:#FBF7C1"/>
				<stop  offset="0.4844" style="stop-color:#FDEF9D"/>
				<stop  offset="0.587" style="stop-color:#DFB158"/>
				<stop  offset="0.6715" style="stop-color:#CE8C31"/>
				<stop  offset="0.7717" style="stop-color:#C27D2A"/>
				<stop  offset="0.8337" style="stop-color:#CC832A"/>
				<stop  offset="0.8827" style="stop-color:#E4A33A"/>
				<stop  offset="0.9307" style="stop-color:#EFB449"/>
				<stop  offset="1" style="stop-color:#B66A29"/>
			</linearGradient>
			<path class="st11" d="M37.9,25.8c-0.5-2.4-1.5-5.9-3.8-8.7c-0.2,0.3-0.5,0.5-0.8,0.5h-2.2c1.5,1.7,3.5,4.5,4.1,8.3H37.9z"/>
		</g>
	</g>
</g>
</svg>
